<?xml version="1.0" encoding="utf-8"?>
<!-- Generator: Adobe Illustrator 16.0.4, SVG Export Plug-In . SVG Version: 6.00 Build 0)  -->
<!DOCTYPE svg PUBLIC "-//W3C//DTD SVG 1.1//EN" "http://www.w3.org/Graphics/SVG/1.1/DTD/svg11.dtd">
<svg version="1.1" id="Layer_1" xmlns="http://www.w3.org/2000/svg" xmlns:xlink="http://www.w3.org/1999/xlink" x="0px" y="0px"
	 width="149px" height="131px" viewBox="0 0 149 131" enable-background="new 0 0 149 131" xml:space="preserve">
<g>
	<path display="none" fill-rule="evenodd" clip-rule="evenodd" fill="#FFFFFF" d="M42.312,50.375
		c-0.076,0.005-0.151,0.011-0.227,0.017c-0.424,0.052-0.856,0.022-1.276,0.119c-0.05-0.023,0.013,0.018-0.036-0.008
		c-0.021-0.012-0.042-0.025-0.059-0.043c0.007,0.019,0.028,0.026,0.038,0.043c0.023,0.054,0.01,0.102-0.023,0.146l0.002-0.006
		c-0.23,0.041-0.463,0.069-0.68,0.165l0.003-0.001c-0.295-0.01-0.561-0.013-0.841,0.181c-0.301,0.207-0.726,0.071-1.077,0.198
		c-0.061-0.033-0.119-0.061-0.093,0.057c-0.417,0.179-0.803,0.432-1.237,0.566c-0.115,0.036-0.177,0.121-0.275,0.162l-0.026,0.018
		l-0.031-0.004c-0.062,0.032-0.147,0.015-0.191,0.088l0.006-0.002c-0.146-0.017-0.244,0.073-0.345,0.155h0
		c-0.117,0.043-0.201-0.082-0.313-0.061c-0.063-0.057-0.133-0.104-0.216-0.127c-0.017,0.006-0.05-0.006-0.038,0.034
		c0.002-0.026,0.02-0.037,0.053-0.029c0.076,0.038,0.161,0.063,0.202,0.148c-0.069,0.215-0.309,0.148-0.435,0.264
		c-0.107,0.098-0.276,0.127-0.33,0.286v-0.003c-0.672,0.189-1.33,0.403-1.767,1.007l0.005-0.004
		c-0.149,0.069-0.369,0.023-0.416,0.257l0-0.003c-0.096,0.042-0.187,0.091-0.261,0.168l0.004-0.001
		c-0.086,0.04-0.157,0.009-0.22-0.047c-0.019-0.019-0.038-0.037-0.056-0.052c0.018,0.021,0.034,0.044,0.047,0.069
		c0.019,0.071,0.015,0.138-0.018,0.203v-0.002c-0.425,0.062-0.671,0.373-0.928,0.669l0.004-0.005
		c-0.04,0.017-0.066,0.049-0.094,0.081l0,0c-0.16,0.023-0.285,0.091-0.331,0.259l0.003-0.003c-0.101,0.045-0.193,0.125-0.302,0.135
		c-0.337,0.031-0.471,0.247-0.532,0.542l0.001-0.006c-0.044,0.016-0.073,0.047-0.094,0.088l0.005-0.003
		c-0.274,0.044-0.507,0.136-0.585,0.445c-0.034,0.131-0.138,0.213-0.267,0.242c-0.267,0.06-0.382,0.235-0.407,0.49l0.004-0.006
		c-0.042,0.019-0.071,0.049-0.091,0.089l0.005-0.003c-0.193,0.029-0.261,0.361-0.532,0.218c-0.038-0.02-0.043,0.055-0.051,0.094
		c-0.105,0.557-0.545,0.86-0.935,1.188c-0.276,0.232-0.352,0.555-0.498,0.848l0.003-0.002c-0.072,0.038-0.146,0.09-0.224,0.096
		c-0.28,0.021-0.364,0.179-0.352,0.438c0.007,0.135-0.031,0.27-0.097,0.392l0.004-0.006c-0.423,0.197-0.626,0.538-0.664,0.995
		c-0.005,0.063-0.064,0.121-0.097,0.182l0.003-0.002c-0.229,0.056-0.168,0.283-0.25,0.426l0.002,0.001
		c-0.03,0.076-0.147-0.119-0.155,0.054c-0.009,0.192-0.105,0.36-0.183,0.531h0.003c-0.27,0.185-0.313,0.516-0.471,0.772
		c-0.095,0.154-0.17,0.367-0.2,0.57l0.006-0.008c-0.111,0.148-0.165,0.37-0.421,0.336c-0.057-0.051-0.063-0.109-0.026-0.174
		c-0.051,0.069-0.027,0.125,0.031,0.176c0.088,0.049,0.124,0.144,0.07,0.209c-0.254,0.309-0.176,0.716-0.331,1.052l0.006-0.007
		c-0.072,0.176-0.178,0.31-0.386,0.301c-0.002,0.035,0.028,0.004,0.039,0.015c0.156,0.091,0.184,0.257,0.078,0.349
		c-0.351,0.306-0.187,0.743-0.32,1.1l0.002-0.007c-0.117,0.093-0.014,0.241-0.087,0.345l0.006-0.008
		c-0.373,0.857-0.492,1.771-0.593,2.688l0.006-0.009c-0.143,0.181,0.007,0.406-0.092,0.594l0.005-0.002
		c-0.036,0.031-0.068,0.028-0.097-0.009c-0.135-0.144-0.068-0.337-0.113-0.487c-0.127-0.418-0.029-0.829-0.051-1.242
		c-0.017-0.317-0.005-0.637-0.002-0.955c0.003-0.352,0.033-0.391,0.361-0.517c0.332-0.128,0.323-0.128,0.312-0.506
		c-0.012-0.391-0.019-0.782,0.002-1.172c0.015-0.287,0.11-0.556,0.434-0.643c0.187-0.05,0.248-0.172,0.229-0.342
		c-0.035-0.297,0.078-0.576,0.098-0.867c0.013-0.189,0.068-0.379,0.314-0.435c0.206-0.047,0.276-0.207,0.263-0.416
		c-0.012-0.18-0.008-0.363,0-0.543c0.012-0.281,0.077-0.377,0.361-0.412c0.234-0.029,0.317-0.136,0.308-0.353
		c-0.004-0.098,0.001-0.195,0-0.293c0-0.279,0.184-0.393,0.418-0.433c0.165-0.028,0.242-0.076,0.221-0.262
		c-0.014-0.12,0.017-0.251,0.054-0.369c0.052-0.162,0.127-0.315,0.341-0.309c0.24,0.007,0.315-0.133,0.305-0.348
		c-0.003-0.07-0.001-0.14,0-0.209c0.006-0.382,0.001-0.402,0.363-0.492c0.227-0.057,0.315-0.141,0.317-0.388
		c0.001-0.273,0.032-0.57,0.428-0.596c0.125-0.008,0.218-0.103,0.25-0.247c0.053-0.245,0.172-0.437,0.447-0.486
		c0.146-0.027,0.21-0.132,0.203-0.273c-0.01-0.212,0.112-0.296,0.296-0.336c0.217-0.046,0.371-0.146,0.427-0.392
		c0.063-0.276,0.372-0.253,0.543-0.387c0.159-0.124,0.068-0.488,0.363-0.545c0.285-0.055,0.429-0.211,0.479-0.483
		c0.013-0.071,0.068-0.157,0.129-0.147c0.391,0.061,0.548-0.421,0.935-0.386C30.965,54.815,31,54.655,31,54.52
		c-0.001-0.196,0.114-0.339,0.281-0.371c0.318-0.062,0.554-0.289,0.863-0.377c0.287-0.082,0.516-0.326,0.819-0.402
		c0.025-0.006,0.061-0.03,0.063-0.05c0.062-0.453,0.559-0.456,0.775-0.749c0.023-0.032,0.062-0.067,0.099-0.073
		c0.375-0.064,0.632-0.394,1.011-0.451c0.063-0.009,0.125-0.059,0.177-0.102c0.269-0.219,0.575-0.265,0.903-0.189
		c0.081,0.019,0.201,0.082,0.234,0.016c0.197-0.391,0.696-0.223,0.939-0.525c0.046-0.057,0.146-0.089,0.226-0.097
		c0.149-0.016,0.271-0.068,0.353-0.193c0.143-0.216,0.326-0.281,0.575-0.188c0.258,0.096,0.509,0,0.709-0.136
		c0.269-0.184,0.547-0.255,0.861-0.251c0.218,0.003,0.417,0.017,0.599-0.192c0.212-0.242,0.575-0.183,0.823-0.104
		c0.335,0.106,0.632-0.096,0.944-0.005c0.053,0.015,0.097-0.045,0.126-0.094c0.152-0.255,0.405-0.271,0.658-0.27
		c1.135,0.003,2.268,0.137,3.404,0.075c0.426-0.023,0.851,0.03,1.283-0.055c0.299-0.059,0.637,0.015,0.945,0.085
		c0.215,0.049,0.255,0.271,0.257,0.477c-0.086,0.016-0.171,0.024-0.254-0.015c-0.163-0.103-0.333-0.214-0.532-0.162
		c-0.41,0.106-0.816-0.064-1.223,0.005c-0.028,0-0.057,0-0.084,0c-0.028-0.035-0.057-0.065-0.084,0
		c-0.726,0.032-1.452,0.025-2.178,0.003c-0.234-0.076-0.446,0.044-0.668,0.077c-0.084,0.028-0.169,0.026-0.254,0.004
		c-0.328-0.168-0.631-0.112-0.916,0.103l0.006-0.006C42.605,50.383,42.445,50.292,42.312,50.375z"/>
	<path display="none" fill-rule="evenodd" clip-rule="evenodd" fill="#FFFFFF" d="M35.272,96.544
		c-0.203-0.046-0.448-0.034-0.599-0.147c-0.301-0.228-0.679-0.272-0.979-0.497c-0.263-0.196-0.584-0.3-0.85-0.512
		c-0.186-0.147-0.399-0.248-0.494-0.483c-0.021-0.053-0.062-0.11-0.12-0.104c-0.391,0.035-0.598-0.332-0.935-0.419
		c-0.169-0.044-0.271-0.18-0.314-0.359c-0.035-0.144-0.125-0.214-0.289-0.252c-0.322-0.075-0.565-0.337-0.886-0.429
		c-0.121-0.347-0.322-0.614-0.681-0.749c-0.042-0.016-0.054-0.122-0.075-0.188c-0.057-0.182-0.132-0.298-0.364-0.32
		c-0.238-0.023-0.371-0.246-0.43-0.466c-0.044-0.166-0.079-0.276-0.285-0.277c-0.19-0.001-0.314-0.132-0.319-0.322
		c-0.005-0.205-0.101-0.263-0.288-0.259c-0.229,0.006-0.378-0.113-0.384-0.348c-0.005-0.205-0.1-0.297-0.29-0.344
		c-0.253-0.062-0.414-0.181-0.361-0.5c0.033-0.199-0.022-0.423-0.294-0.476c-0.324-0.062-0.42-0.285-0.402-0.586
		c0.004-0.069-0.002-0.14-0.001-0.21c0.001-0.133-0.06-0.19-0.196-0.216c-0.452-0.083-0.477-0.103-0.467-0.52
		c0.006-0.285-0.039-0.47-0.377-0.521c-0.237-0.035-0.378-0.328-0.329-0.638c0.036-0.228-0.039-0.298-0.245-0.334
		c-0.34-0.061-0.438-0.203-0.417-0.543c0.006-0.097,0.02-0.194,0.021-0.291c0.006-0.384,0.006-0.39-0.356-0.521
		c-0.262-0.095-0.294-0.318-0.308-0.54c-0.018-0.277-0.018-0.559-0.001-0.837c0.012-0.195-0.086-0.264-0.247-0.325
		c-0.312-0.12-0.466-0.368-0.42-0.692c0.039-0.277,0.036-0.546-0.005-0.818c-0.012-0.082-0.021-0.174,0.001-0.25
		c0.099-0.33-0.016-0.487-0.354-0.57c-0.201-0.049-0.325-0.237-0.323-0.484c0.008-0.824,0.003-1.647,0.003-2.471
		c0-0.128-0.012-0.262,0.167-0.283c0.165,0.08,0.105,0.234,0.126,0.365c0.088,0.55,0.099,1.114,0.306,1.642l-0.006-0.007
		c0.012,0.22,0.121,0.424,0.104,0.647c0.026,0.064-0.114-0.031-0.06,0.062c0.169,0.181,0.19,0.43,0.297,0.639l-0.006-0.008
		c0.093,0.558,0.235,1.1,0.507,1.6l-0.005-0.007c0.022,0.254,0.172,0.466,0.234,0.706c0.011,0.04,0.045,0.076,0.042,0.117
		c-0.036,0.597,0.29,1.028,0.651,1.445l-0.005-0.008c0.086,0.188,0.023,0.399,0.1,0.598c0.081,0.209,0.186,0.355,0.406,0.407h-0.003
		c0.087,0.244,0.206,0.479,0.194,0.75c-0.014,0.337,0.318,0.287,0.483,0.424l-0.006-0.003c0.016,0.038,0.043,0.073,0.051,0.111
		c0.093,0.451,0.228,0.874,0.707,1.07l-0.005-0.007c0.1,0.206,0.109,0.427,0.114,0.648c-0.003,0.038-0.044,0.083-0.035,0.103
		c0.034,0.071,0.042-0.05,0.079-0.018c0.155-0.002,0.305,0.011,0.437,0.104l-0.009-0.004c0.014,0.045,0.046,0.074,0.086,0.095
		l-0.004-0.005c0.03,0.063,0.102,0.125,0.098,0.182c-0.031,0.365,0.161,0.525,0.493,0.572l-0.003-0.002
		c0.048,0.129,0.145,0.239,0.158,0.38c0.021,0.222,0.053,0.386,0.357,0.366c0.175-0.012,0.372,0.196,0.377,0.335
		c0.014,0.33,0.255,0.339,0.452,0.43l-0.007-0.004c0.019,0.042,0.049,0.073,0.092,0.091l-0.008-0.008
		c0.018,0.043,0.048,0.073,0.091,0.092l-0.001-0.005c0.018,0.213,0.044,0.392,0.34,0.401c0.178,0.006,0.343,0.188,0.388,0.336
		c0.087,0.288,0.315,0.34,0.53,0.437l-0.007-0.005c0.018,0.044,0.048,0.075,0.094,0.09l-0.001-0.006
		c0.082,0.017-0.104,0.162,0.102,0.163c0.228,0.002,0.238,0.324,0.458,0.435c0.2,0.101,0.388,0.244,0.602,0.336l-0.002-0.002
		c0.026,0.034,0.054,0.065,0.095,0.082l-0.007-0.007c0.019,0.042,0.049,0.074,0.094,0.088l0-0.006
		c0.015,0.224,0.092,0.351,0.351,0.407c0.364,0.081,0.643,0.37,0.985,0.521l-0.001-0.004c0.04,0.127,0.163,0.123,0.257,0.165
		l-0.007-0.005c0.04,0.097,0.216,0.115,0.157,0.27c-0.051,0.021,0.018,0.002-0.03,0.029c-0.047,0.026-0.096,0.015-0.143,0.026
		c0.05,0.018,0.095,0.007,0.137-0.023c0.022-0.016,0.041-0.036,0.056-0.059c0.157-0.032,0.24,0.045,0.279,0.187
		c0.006,0.039-0.056,0.066-0.033,0.095c0.016,0.021,0.03-0.05,0.069-0.041c0.263-0.058,0.412,0.257,0.672,0.204l0,0
		c0.053,0.378,0.373,0.264,0.598,0.326l-0.006-0.005c0.168,0.364,0.525,0.355,0.842,0.425l-0.002-0.004
		c0.065,0.079,0.043,0.155-0.006,0.23c-0.02,0.026-0.044,0.049-0.07,0.068c-0.042,0.024-0.087,0.042-0.136,0.05
		C35.305,96.544,35.289,96.544,35.272,96.544z"/>
	<path display="none" fill-rule="evenodd" clip-rule="evenodd" fill="#FFFFFF" d="M34.691,110.799c0.009,0.03,0,0.055-0.025,0.073
		c-0.019,0.032-0.038,0.063-0.059,0.094c0.009,0.031,0.001,0.056-0.025,0.073c-0.019,0.032-0.038,0.063-0.059,0.095
		c0.009,0.03,0.001,0.055-0.025,0.073c-0.019,0.039-0.052,0.072-0.051,0.119l0.005,0.029l-0.024,0.018
		c-0.047,0.049-0.03,0.125-0.074,0.176c0.011,0.029,0.006,0.054-0.015,0.076c-0.028,0.037-0.061,0.071-0.059,0.122
		c-0.012,0.044-0.023,0.087-0.036,0.131c-0.018,0.039-0.051,0.071-0.049,0.119c-0.012,0.044-0.023,0.088-0.034,0.132
		c-0.018,0.039-0.051,0.072-0.05,0.12c-0.008,0.043-0.017,0.087-0.025,0.13c-0.039,0.053-0.025,0.125-0.067,0.176
		c-0.008,0.054-0.017,0.107-0.026,0.161c-0.026,0.056-0.018,0.123-0.058,0.174c-0.008,0.054-0.017,0.107-0.025,0.161
		c-0.021,0.067-0.034,0.137-0.051,0.204c-0.008,0.043-0.017,0.087-0.025,0.13c-0.056,0.077-0.002,0.184-0.066,0.259
		c0.004,0.083,0.018,0.167-0.025,0.245c-0.042,0.081,0.004,0.182-0.059,0.258c0.004,0.083,0.018,0.167-0.025,0.245
		c-0.037,0.05,0.009,0.14-0.08,0.164c-0.204-0.057-0.228-0.224-0.231-0.395c-0.005-0.265,0.001-0.529-0.002-0.794
		c-0.002-0.162,0.047-0.312,0.157-0.42c0.154-0.152,0.196-0.325,0.18-0.53c-0.02-0.246,0.022-0.473,0.241-0.63
		c0.126-0.09,0.092-0.225,0.09-0.346c-0.004-0.243,0.002-0.476,0.244-0.623c0.061-0.037,0.09-0.109,0.089-0.181
		c-0.003-0.211,0.071-0.377,0.251-0.496c0.04-0.027,0.066-0.091,0.078-0.142c0.102-0.422,0.373-0.728,0.676-1.015
		c0.291-0.274,0.542-0.59,0.888-0.807c0.093-0.058,0.16-0.161,0.284-0.154c0.14,0.008,0.211-0.098,0.314-0.158
		c0.313-0.183,0.66-0.306,0.966-0.505c0.011-0.008,0.028-0.009,0.041-0.007c0.286,0.04,0.55,0.067,0.729-0.256
		c0.072-0.13,0.282-0.088,0.434-0.082c0.187,0.008,0.346-0.022,0.497-0.158c0.145-0.13,0.329-0.14,0.54-0.121
		c0.294,0.026,0.596-0.022,0.896,0.023c0.12,0.019,0.214,0.05,0.278,0.154c-0.026,0.087-0.115,0.042-0.165,0.079
		c-0.07,0.011-0.14,0.021-0.21,0.031c-0.094,0.039-0.202,0.013-0.294,0.061c-0.053,0.006-0.106,0.012-0.159,0.018
		c-0.076,0.063-0.182,0.01-0.26,0.066c-0.042,0.008-0.085,0.016-0.128,0.024c-0.069,0.017-0.138,0.029-0.206,0.051
		c-0.053,0.009-0.106,0.017-0.16,0.025c-0.051,0.041-0.119,0.032-0.175,0.059c-0.043,0.011-0.085,0.021-0.128,0.032
		c-0.07,0.02-0.144,0.024-0.208,0.062l-0.035,0.02l-0.041-0.005c-0.051,0.042-0.119,0.032-0.174,0.059
		c-0.043,0.012-0.087,0.022-0.13,0.034c-0.048-0.002-0.082,0.032-0.122,0.05c-0.043,0.012-0.086,0.022-0.129,0.033
		c-0.048-0.001-0.082,0.033-0.122,0.051c-0.043,0.012-0.086,0.022-0.129,0.034c-0.051-0.001-0.086,0.032-0.123,0.06l-0.033,0.02
		l-0.038-0.003c-0.031,0.021-0.063,0.04-0.096,0.058c-0.042,0.011-0.085,0.022-0.128,0.033c-0.053,0-0.088,0.033-0.124,0.065
		l-0.016,0.023l-0.028-0.005c-0.053,0-0.088,0.033-0.124,0.065l-0.016,0.023l-0.028-0.005c-0.053-0.001-0.088,0.032-0.124,0.065
		l-0.016,0.023l-0.028-0.005c-0.053,0-0.088,0.032-0.123,0.065l-0.016,0.023l-0.028-0.006c-0.054,0-0.09,0.035-0.126,0.068
		l-0.003,0.002c-0.019,0.027-0.045,0.046-0.076,0.057c-0.024,0.011-0.049,0.022-0.074,0.033c-0.032,0.021-0.063,0.042-0.095,0.063
		l-0.014,0.026l-0.03,0.002c-0.056,0.001-0.092,0.034-0.124,0.075l0.003-0.001c-0.028,0.023-0.057,0.045-0.087,0.064l-0.014,0.027
		l-0.03,0.001c-0.057,0.002-0.094,0.034-0.12,0.083l0.005-0.006c-0.039,0.016-0.064,0.05-0.095,0.075l-0.003,0.002
		c-0.022,0.029-0.05,0.052-0.084,0.067l-0.013,0.014c-0.014,0.033-0.037,0.057-0.071,0.07l-0.013,0.013
		c-0.011,0.031-0.032,0.052-0.063,0.062c-0.001,0.029-0.016,0.041-0.044,0.038c-0.058,0.002-0.095,0.034-0.121,0.083l0.005-0.006
		c-0.04,0.02-0.069,0.049-0.089,0.089l0.006-0.006c-0.048,0.025-0.08,0.062-0.082,0.12c0.003,0.029-0.009,0.044-0.039,0.046
		c-0.011,0.031-0.031,0.052-0.062,0.063l-0.013,0.013c-0.014,0.033-0.037,0.058-0.071,0.07l-0.013,0.014
		c-0.016,0.033-0.038,0.062-0.067,0.084l-0.001,0.003c-0.026,0.031-0.059,0.057-0.075,0.095l0.005-0.005
		c-0.048,0.025-0.08,0.062-0.082,0.119c0.003,0.029-0.01,0.045-0.04,0.047c-0.012,0.031-0.031,0.057-0.058,0.076l-0.001,0.003
		c-0.029,0.031-0.058,0.062-0.074,0.103c0.006,0.029-0.002,0.053-0.027,0.068c-0.018,0.031-0.038,0.06-0.061,0.087l0.002-0.003
		c-0.042,0.03-0.075,0.066-0.076,0.122c0.008,0.026-0.002,0.041-0.029,0.046c-0.021,0.031-0.042,0.062-0.062,0.095
		c0.009,0.03,0.001,0.055-0.025,0.073c-0.019,0.031-0.038,0.063-0.059,0.094c0.009,0.03,0.001,0.055-0.025,0.073
		C34.731,110.736,34.711,110.768,34.691,110.799z"/>
	<g>
		<path fill="#C6D92C" d="M120.38,90.84c0.418-0.485,0.836-0.971,1.254-1.456c-0.003-0.024,0.008-0.04,0.032-0.045
			c0.161-0.253,0.335-0.496,0.552-0.707c-0.006-0.022,0.003-0.038,0.025-0.045c0.069-0.042,0.118-0.103,0.144-0.18h-0.001
			c0.31-0.521,0.643-1.025,1.005-1.511c0,0,0,0,0,0.001c0.081-0.213,0.176-0.418,0.342-0.581c0,0,0,0-0.001,0
			c0.151-0.387,0.368-0.737,0.587-1.088c-0.001,0-0.001,0.001-0.002,0.001c0.037-0.191,0.136-0.351,0.252-0.501l0,0
			c0.001-0.078,0.021-0.147,0.083-0.2c-0.012-0.021-0.008-0.037,0.014-0.048c0.085-0.236,0.157-0.479,0.322-0.677
			c-0.001,0-0.001,0.001-0.002,0.002c0.004-0.075,0.027-0.144,0.084-0.196c0.001-0.001,0.001-0.002,0.001-0.003
			c0.009-0.044,0.019-0.088,0.027-0.132c0.059-0.18,0.1-0.368,0.227-0.519c-0.009-0.025-0.004-0.048,0.016-0.068
			c0.068-0.207,0.098-0.43,0.231-0.612c0.01-0.047,0.021-0.095,0.031-0.142c0.03-0.121,0.036-0.252,0.141-0.341h-0.001
			c0.025-0.184,0.06-0.365,0.164-0.525c-0.012-0.021-0.008-0.04,0.012-0.055c-0.017-0.102,0-0.193,0.079-0.267
			c-0.011-0.024-0.007-0.047,0.01-0.068c0.015-0.187,0.06-0.363,0.152-0.527c0.006-0.048,0.013-0.097,0.02-0.146
			c-0.014-0.076,0.017-0.138,0.066-0.192c0.006-0.048,0.012-0.095,0.018-0.143c-0.008-0.096,0.008-0.186,0.07-0.263
			c-0.012-0.025-0.01-0.049,0.008-0.071c-0.009-0.099,0.003-0.19,0.075-0.267c0.005-0.051,0.01-0.102,0.015-0.153
			c0.026-0.283,0.059-0.566,0.16-0.836c0.002-0.028,0.004-0.057,0.005-0.086c0.009-0.142-0.014-0.29,0.075-0.418
			c0.003-0.084,0.007-0.168,0.011-0.252c0.011-0.083,0.011-0.168,0.035-0.248c0.004-0.031,0.013-0.062,0.034-0.09
			c-0.001,0-0.001,0-0.002,0c0.003-0.215,0.013-0.429,0.046-0.642c0.002-0.074,0.011-0.148,0.037-0.221
			c0.005-0.158,0.01-0.316,0.015-0.475c0.006-0.317,0.008-0.635,0.018-0.952c0.004-0.136-0.032-0.278,0.055-0.402
			c-0.002-0.155-0.005-0.31-0.007-0.464c-0.112-0.422-0.007-0.854-0.066-1.279c-0.004-0.163-0.007-0.326-0.01-0.49
			c-0.104-0.16-0.039-0.34-0.058-0.51c-0.052-0.104-0.034-0.216-0.027-0.325c-0.024-0.037-0.032-0.078-0.036-0.119
			c-0.025-0.103-0.026-0.209-0.037-0.314c-0.004-0.076-0.009-0.152-0.014-0.229c-0.066-0.111-0.074-0.234-0.069-0.359
			c-0.005-0.056-0.009-0.11-0.014-0.166c-0.1-0.241-0.121-0.498-0.148-0.753c-0.006-0.052-0.012-0.103-0.017-0.153
			c-0.071-0.076-0.083-0.169-0.075-0.268c-0.019-0.021-0.021-0.044-0.009-0.068c-0.062-0.078-0.068-0.171-0.068-0.265
			c-0.004-0.029-0.007-0.058-0.011-0.086c-0.104-0.182-0.112-0.39-0.156-0.587c-0.012-0.052-0.024-0.104-0.037-0.156
			c-0.059-0.048-0.069-0.109-0.053-0.18c-0.017-0.022-0.02-0.047-0.01-0.072c-0.133-0.237-0.178-0.503-0.236-0.764
			c-0.021-0.021-0.025-0.045-0.014-0.072c-0.103-0.126-0.124-0.28-0.156-0.432c-0.019-0.022-0.026-0.049-0.021-0.078
			c-0.198-0.407-0.354-0.83-0.485-1.262c-0.021-0.013-0.025-0.03-0.015-0.051c-0.203-0.356-0.387-0.721-0.501-1.117
			c-0.127-0.145-0.205-0.314-0.253-0.5c-0.062-0.04-0.082-0.1-0.084-0.17c-0.182-0.268-0.332-0.553-0.476-0.843
			c-0.023-0.015-0.031-0.036-0.023-0.062c-0.079-0.075-0.153-0.152-0.155-0.271c-0.013-0.025-0.024-0.05-0.036-0.075
			c-0.308-0.397-0.556-0.832-0.813-1.262c-0.174-0.171-0.307-0.371-0.418-0.587c-0.108-0.093-0.189-0.208-0.246-0.339
			c0,0,0,0,0.001,0c-0.028-0.025-0.052-0.054-0.069-0.087l-0.009-0.01c-0.119-0.081-0.193-0.196-0.249-0.326l-0.005-0.006
			c-0.032-0.018-0.056-0.044-0.071-0.078l-0.008-0.009c-0.452-0.522-0.905-1.044-1.357-1.566l0,0
			c-0.271-0.175-0.433-0.461-0.67-0.67l0,0c-0.261-0.192-0.472-0.436-0.691-0.671c-0.026,0.003-0.044-0.008-0.053-0.033
			c-0.39-0.329-0.778-0.658-1.168-0.986l-0.004-0.003c-0.033-0.021-0.059-0.051-0.09-0.071c0,0,0,0,0,0
			c-0.386-0.283-0.771-0.567-1.156-0.851l-0.009-0.009c-0.033-0.018-0.062-0.041-0.088-0.069c-0.136-0.042-0.248-0.12-0.343-0.225
			c-0.027-0.017-0.054-0.034-0.08-0.051c-0.031-0.013-0.058-0.033-0.078-0.06l-0.001,0c-0.203-0.056-0.362-0.182-0.512-0.323
			c0,0,0,0.001,0,0.002c-0.567-0.289-1.126-0.596-1.666-0.935l-0.001,0c-0.248-0.071-0.469-0.202-0.691-0.326
			c-0.026,0.007-0.048,0-0.064-0.021c-0.028-0.021-0.059-0.04-0.089-0.057c0,0.001,0.002,0.001,0.002,0.002
			c-0.069-0.006-0.136-0.02-0.174-0.089c0,0.001-0.001,0.002-0.001,0.003c-0.091-0.003-0.179-0.016-0.236-0.099l-0.002-0.001
			c-0.047-0.045-0.124-0.031-0.168-0.082c-0.357-0.1-0.702-0.23-1.028-0.408c-0.025,0.007-0.047,0-0.062-0.021
			c-0.572-0.169-1.141-0.351-1.697-0.568c-0.022,0.011-0.043,0.007-0.061-0.011c-0.097,0.011-0.183-0.009-0.254-0.079
			c-0.207-0.013-0.404-0.065-0.592-0.158c0,0,0,0.001,0,0.001c-0.269-0.004-0.521-0.08-0.768-0.174
			c-0.05-0.008-0.099-0.015-0.148-0.023c-0.616-0.105-1.233-0.211-1.85-0.316c-0.082-0.005-0.163-0.01-0.245-0.015
			c-0.503-0.062-1.015-0.035-1.513-0.152c-0.808,0.009-1.615,0.027-2.422-0.009c-0.056,0-0.111,0-0.167,0
			c-0.027,0.003-0.056,0.007-0.083,0.01c-0.242,0.117-0.503,0.053-0.755,0.074c-0.028,0-0.057-0.001-0.086-0.001
			c-0.055,0-0.109,0-0.165,0c-0.027,0.004-0.055,0.008-0.082,0.012c-0.213,0.113-0.445,0.067-0.67,0.083c0,0,0-0.001,0-0.001
			c-0.047,0.024-0.096,0.036-0.146,0.04c-0.145,0.037-0.293,0.042-0.442,0.034c-0.028,0.004-0.056,0.008-0.083,0.011
			c-0.127,0.101-0.276,0.079-0.421,0.078c-0.017,0.02-0.036,0.023-0.059,0.011c-0.278,0.101-0.565,0.151-0.86,0.162c0,0,0,0,0,0
			c-0.096,0.092-0.218,0.083-0.337,0.085c0,0,0.001,0,0.001,0c-0.327,0.114-0.663,0.192-1.005,0.251l0,0
			c-0.068,0.079-0.158,0.083-0.253,0.076c-0.023,0.02-0.049,0.026-0.078,0.019c-0.33,0.129-0.66,0.256-1.01,0.323l0,0
			c-0.234,0.129-0.488,0.2-0.748,0.258l0,0c-0.375,0.2-0.377,0.201-0.581-0.115c-0.045-0.069-0.075-0.147-0.112-0.221l0,0
			c-0.093-0.056-0.142-0.144-0.167-0.247c0,0,0,0,0,0l0,0v0c0.001,0,0.003-0.001,0.004-0.002c-0.016-0.039-0.046-0.066-0.074-0.094
			c0,0,0,0,0,0c-0.26-0.311-0.467-0.656-0.657-1.012l-0.005-0.007c-0.181-0.193-0.326-0.411-0.432-0.653
			c-0.673-0.957-1.314-1.937-1.921-2.938c-0.026-0.021-0.045-0.047-0.057-0.078c-0.026-0.014-0.038-0.035-0.035-0.065
			c-0.014-0.044-0.044-0.077-0.076-0.108c-0.219-0.245-0.386-0.524-0.525-0.82c0.002,0,0.003,0,0.005,0
			c-0.262-0.254-0.408-0.59-0.623-0.878c-0.086-0.115-0.046-0.207,0.056-0.284c0.165-0.125,0.312-0.273,0.501-0.365h-0.001
			c0.449-0.387,0.897-0.774,1.347-1.162l0.006-0.006c0.198-0.277,0.46-0.486,0.733-0.683c0.138-0.275,0.369-0.462,0.602-0.651
			l0.005-0.006c0.063-0.101,0.127-0.201,0.23-0.266c0,0,0.001,0.001,0.001,0.002c0.037-0.02,0.067-0.048,0.086-0.086
			c-0.001,0-0.001-0.001-0.002-0.001c0.218-0.334,0.5-0.615,0.763-0.912c0,0,0,0,0,0c0.088-0.158,0.187-0.307,0.33-0.422l0,0
			c0.151-0.236,0.297-0.477,0.503-0.672v0c0.042-0.03,0.074-0.065,0.079-0.119c-0.004-0.025,0.007-0.041,0.031-0.047
			c0.017-0.03,0.036-0.057,0.062-0.081l0,0c0.148-0.264,0.301-0.526,0.504-0.754l-0.001,0c0.036-0.034,0.069-0.07,0.074-0.123
			c-0.005-0.024,0.004-0.041,0.028-0.048c0.018-0.029,0.039-0.057,0.061-0.084c0.178-0.345,0.357-0.689,0.592-1.001
			c0.028-0.03,0.06-0.057,0.068-0.1c-0.002,0-0.004,0-0.006,0c0.179-0.397,0.356-0.795,0.595-1.162
			c0.012-0.027,0.022-0.055,0.033-0.082c0.017-0.029,0.035-0.058,0.056-0.085c-0.001,0-0.001,0.001-0.002,0.001
			c-0.001-0.077,0.021-0.145,0.083-0.195c-0.011-0.022-0.006-0.041,0.016-0.054c0.023-0.03,0.055-0.056,0.061-0.097
			c-0.002,0-0.003,0.003-0.006,0.003c0.14-0.432,0.331-0.841,0.521-1.252c-0.001,0-0.001,0.001-0.002,0.001
			c0.142-0.483,0.32-0.953,0.509-1.42c0.007-0.029,0.015-0.058,0.021-0.087c-0.008-0.068,0.007-0.129,0.06-0.177
			c-0.011-0.027-0.006-0.051,0.014-0.072c-0.005-0.093,0.01-0.182,0.073-0.255c-0.011-0.03-0.004-0.056,0.02-0.078
			c0.046-0.265,0.107-0.525,0.229-0.768c0.005-0.052,0.01-0.104,0.014-0.156c-0.013-0.077,0.016-0.14,0.065-0.196
			c0.006-0.046,0.013-0.093,0.019-0.139c-0.006-0.095,0.011-0.183,0.071-0.26c-0.013-0.025-0.01-0.049,0.007-0.072
			c-0.001-0.12,0.006-0.238,0.077-0.341c0.005-0.054,0.009-0.109,0.014-0.163c-0.004-0.094,0-0.187,0.067-0.263
			c0.004-0.052,0.008-0.104,0.012-0.156c-0.001-0.089,0.01-0.175,0.039-0.258c0.004-0.031,0.013-0.062,0.034-0.089
			c0.004-0.051,0.008-0.103,0.011-0.155c0.041-0.37,0.041-0.745,0.156-1.104c0.004-0.134,0.007-0.269,0.011-0.403
			c0.033-0.204-0.028-0.419,0.069-0.616c0.003-0.382-0.026-0.765,0.019-1.146c0.001-0.249,0.003-0.499,0.005-0.748
			c-0.056-0.382-0.019-0.767-0.022-1.15c-0.104-0.166-0.034-0.349-0.055-0.523c-0.055-0.14-0.036-0.283-0.017-0.426
			c-0.109-0.383-0.131-0.779-0.166-1.173c-0.005-0.074-0.011-0.148-0.016-0.222c-0.05-0.054-0.061-0.12-0.054-0.19
			c-0.034-0.055-0.032-0.113-0.018-0.173c-0.069-0.131-0.086-0.272-0.081-0.417c-0.005-0.044-0.01-0.088-0.016-0.133
			c-0.089-0.198-0.13-0.408-0.149-0.624c-0.006-0.044-0.012-0.089-0.018-0.134c-0.049-0.057-0.076-0.121-0.063-0.197
			c-0.005-0.052-0.011-0.104-0.016-0.156c-0.097-0.158-0.122-0.337-0.152-0.515c-0.004-0.029-0.008-0.057-0.012-0.085
			c-0.053-0.075-0.101-0.152-0.078-0.251c-0.017-0.021-0.021-0.045-0.009-0.07c-0.053-0.048-0.083-0.105-0.069-0.18
			c-0.018-0.024-0.021-0.051-0.012-0.08c-0.042-0.242-0.048-0.485-0.134-0.724c-0.591-1.645-1.315-3.222-2.218-4.723
			c-1.443-2.403-3.263-4.478-5.419-6.255c-2.394-1.973-5.076-3.433-8.036-4.364c-1.753-0.551-3.536-0.957-5.386-0.986
			c0.001,0.012-0.001,0.023,0.001,0.035c-0.197-0.016-0.409,0.072-0.589-0.08c-0.921,0-1.843,0-2.764,0
			c-0.179,0.154-0.391,0.061-0.589,0.08c0.002-0.012,0-0.024,0.001-0.036c-0.607,0.003-1.213,0.04-1.81,0.138
			c-2.859,0.47-5.562,1.388-8.096,2.808c-2.66,1.49-4.941,3.426-6.88,5.765c-1.915,2.31-3.345,4.897-4.284,7.751
			c-0.015,0.038-0.029,0.076-0.039,0.116c-0.014,0.039-0.023,0.079-0.035,0.118c0.031-0.059,0.067-0.114,0.131-0.147
			c-0.102,0.368-0.177,0.745-0.34,1.094c0.001-0.001,0.003-0.003,0.004-0.005c-0.058,0.343-0.128,0.683-0.254,1.01
			c0.002-0.001,0.002-0.003,0.005-0.004c-0.017,0.116,0.006,0.241-0.088,0.336c0.001,0,0.001-0.001,0.002-0.002
			c-0.021,0.143,0.021,0.298-0.086,0.423c0.001,0,0.002-0.001,0.003-0.001c-0.003,0.488-0.155,0.954-0.206,1.437
			c-0.062,0.591-0.158,1.178-0.157,1.775c0,0.056-0.015,0.105-0.06,0.142c0.002-0.001,0.002-0.003,0.004-0.004
			c-0.001,0.79-0.025,1.582,0.003,2.371c0.025,0.717,0.107,1.432,0.165,2.148c-0.049-0.03-0.088-0.068-0.092-0.129
			c-0.004-0.069-0.033-0.156-0.002-0.204c0.058-0.092,0.008-0.149-0.057-0.204c0.013,0.142,0.018,0.284,0.032,0.426
			c0.006,0.048,0.015,0.095,0.03,0.142c0.02,0.146,0.051,0.29,0.074,0.436c0.003-0.158,0.005-0.316,0.008-0.474
			c0.117,0.354,0.112,0.729,0.191,1.091c0.166,0.754,0.326,1.51,0.488,2.266c-0.072-0.049-0.106-0.124-0.142-0.199
			c0.008,0.031,0.014,0.062,0.021,0.092c0.01,0.041,0.022,0.08,0.038,0.119c0.036,0.083,0.059,0.169,0.084,0.256
			c-0.022-0.092-0.044-0.182-0.008-0.276c0.135,0.266,0.193,0.554,0.254,0.842c-0.002,0-0.002,0-0.004,0
			c0.087,0.065,0.077,0.165,0.088,0.256c-0.001,0-0.001-0.002-0.002-0.003c0.08,0.067,0.079,0.162,0.087,0.254
			c-0.003-0.001-0.001-0.004-0.004-0.005c0.183,0.441,0.37,0.88,0.502,1.339c-0.001,0-0.002,0.001-0.002,0.001
			c0.103,0.121,0.15,0.265,0.172,0.419c0.217,0.34,0.361,0.714,0.503,1.089c0,0-0.001,0-0.002,0
			c0.066,0.037,0.081,0.101,0.086,0.169c0.064,0.038,0.08,0.101,0.085,0.169c-0.001,0-0.001-0.002-0.003-0.002
			c0.39,0.67,0.78,1.341,1.169,2.012c0.068,0.035,0.083,0.099,0.09,0.167c0.224,0.26,0.426,0.533,0.581,0.84h0
			c0.274,0.317,0.529,0.648,0.756,1c0,0,0,0,0,0c0.556,0.598,1.064,1.238,1.641,1.82c0.665,0.672,1.354,1.314,2.083,1.915
			c0.104,0.087,0.231,0.151,0.297,0.279v0c0.204,0.124,0.204,0.146-0.003,0.356c0,0,0,0,0,0c-0.179,0.365-0.411,0.695-0.667,1.009
			c0,0,0.001,0,0.002,0c-0.182,0.362-0.4,0.7-0.67,1.002c0,0,0,0,0,0c-0.298,0.603-0.69,1.145-1.092,1.68c0,0,0,0,0-0.001
			c-0.12,0.282-0.292,0.532-0.498,0.757c0,0,0.001,0,0.001,0c-0.145,0.34-0.359,0.635-0.595,0.917
			c-0.02,0.108-0.075,0.193-0.167,0.252c0,0,0,0,0-0.001c-0.179,0.363-0.4,0.698-0.66,1.007c0,0,0,0,0.001,0
			c-0.021,0.13-0.12,0.215-0.186,0.319c-0.337,0.536-0.338,0.536-0.929,0.277c0.003-0.027,0.016-0.047,0.023-0.072
			c-0.019-0.006-0.037-0.012-0.056-0.017c-0.037-0.01-0.072-0.022-0.108-0.033c0.023,0.023,0.04,0.065,0.061,0.095
			c-0.066,0.008-0.13,0.005-0.173-0.058c0.026-0.031,0.048-0.047,0.065-0.052c-0.013-0.004-0.026-0.007-0.039-0.012
			c-0.031-0.012-0.062-0.022-0.095-0.03c-0.063-0.017-0.125-0.04-0.185-0.065c-0.031-0.013-0.062-0.025-0.095-0.034
			c0,0-0.001,0-0.002,0c0.002,0.028-0.001,0.058,0.021,0.083c-0.157-0.002-0.293-0.065-0.422-0.146c0,0,0,0,0,0
			c-0.436-0.07-0.856-0.198-1.273-0.339c0.049-0.013,0.098-0.028,0.146-0.043c-0.028-0.007-0.056-0.016-0.084-0.023
			c-0.056-0.015-0.112-0.028-0.17-0.036c-0.077-0.012-0.151-0.035-0.225-0.06c-0.002-0.001-0.004-0.001-0.007-0.002
			c0.007,0.026,0.014,0.052,0.021,0.079c0.065-0.007,0.126,0,0.17,0.059c-0.064,0.006-0.127,0.007-0.169-0.054l0,0
			c-0.59-0.09-1.179-0.19-1.757-0.344c-0.085,0.009-0.171,0.018-0.252-0.021c-0.121-0.005-0.25,0.04-0.355-0.06
			c-0.022,0.012-0.042,0.008-0.06-0.009c-0.076-0.065-0.163-0.106-0.264-0.113c-0.016-0.003-0.032-0.004-0.048-0.007
			c0.019,0.034,0.037,0.07,0.058,0.105c-0.584-0.067-1.175-0.053-1.755-0.157c0.027-0.046,0.057-0.079,0.09-0.102
			c-0.019-0.004-0.038-0.004-0.057-0.008c-0.049-0.002-0.098-0.003-0.146-0.001c-0.011,0-0.021,0-0.032,0
			c0.041,0.015,0.052,0.066,0.06,0.112c-0.028,0-0.057,0-0.084,0c-0.005-0.039-0.042-0.088-0.012-0.113
			c-0.027,0-0.053-0.001-0.08-0.001c-0.679-0.008-1.357-0.024-2.036,0.013c-0.038,0.011-0.077,0.014-0.115,0.022
			c0.023,0.025,0.047,0.046,0.066,0.082c-0.211,0.127-0.446,0.048-0.668,0.077c0.077-0.037,0.154-0.074,0.231-0.111
			c-0.07,0.002-0.14,0.009-0.211,0.004c-0.091-0.001-0.181,0-0.271,0.007c-0.031,0.004-0.062,0.009-0.093,0.014
			c0.03,0.03,0.065,0.049,0.089,0.09c-0.302,0.067-0.607,0.102-0.916,0.103c0-0.001,0.002-0.002,0.002-0.004
			c-0.128,0.103-0.281,0.056-0.424,0.066c0.125-0.129,0.281-0.062,0.425-0.068c0.015-0.037,0.036-0.063,0.055-0.091
			c-0.031,0.006-0.062,0.012-0.093,0.022c-0.137,0.049-0.279,0.039-0.42,0.043c-0.083,0.003-0.165,0.013-0.245,0.034
			c-0.072,0.018-0.146,0.028-0.219,0.042c0.09,0.011,0.18,0.022,0.269,0.033c-0.442,0.141-0.898,0.203-1.357,0.257
			c0-0.002,0-0.003,0-0.005c-0.212,0.112-0.442,0.152-0.678,0.164c0,0,0,0,0.001,0c-0.287,0.138-0.601,0.183-0.903,0.267
			c-0.891,0.247-1.743,0.604-2.617,0.896c0.021-0.027,0.034-0.066,0.047-0.105c-0.03,0.01-0.06,0.02-0.088,0.033
			c-0.068,0.03-0.135,0.063-0.202,0.095c-0.027,0.013-0.052,0.026-0.078,0.04c0.024,0.01,0.046,0.015,0.076,0.037
			c0.037-0.084,0.109-0.092,0.188-0.085c-0.045,0.065-0.112,0.085-0.187,0.087c-0.097,0.09-0.215,0.135-0.343,0.154
			c0.013-0.03,0.027-0.059,0.041-0.086c-0.012,0.005-0.024,0.012-0.037,0.017c-0.014,0.006-0.026,0.013-0.04,0.02
			c0.013,0.018,0.021,0.028,0.035,0.05c-0.342,0.209-0.708,0.366-1.078,0.515c-0.01-0.038-0.001-0.062,0.001-0.09
			c-0.032,0.015-0.064,0.031-0.095,0.049c-0.003,0.002-0.007,0.004-0.01,0.006c0.035,0.011,0.069,0.023,0.104,0.032
			c-0.588,0.335-1.177,0.671-1.765,1.006c-0.122,0.109-0.251,0.207-0.412,0.254c0,0,0-0.001-0.001-0.001
			c-0.058,0.097-0.149,0.142-0.255,0.165l0,0c-0.06,0.089-0.141,0.147-0.246,0.172c0,0,0-0.001,0-0.002
			c-0.287,0.254-0.595,0.478-0.928,0.669c0.003-0.049,0.025-0.083,0.04-0.124c-0.007,0.005-0.014,0.01-0.021,0.015
			c-0.014,0.012-0.029,0.024-0.043,0.036c-0.028,0.024-0.055,0.048-0.081,0.074c-0.019,0.016-0.037,0.033-0.056,0.05
			c0.025,0.009,0.042,0.012,0.072,0.023c-0.077,0.128-0.197,0.202-0.331,0.259c0,0,0,0,0,0c-0.263,0.243-0.517,0.495-0.831,0.675
			c-0.008-0.02-0.021-0.04-0.032-0.061c-0.008,0.006-0.018,0.012-0.025,0.019c-0.03,0.023-0.059,0.046-0.086,0.072
			c-0.009,0.008-0.017,0.017-0.026,0.024c0.027,0.008,0.051,0.014,0.083,0.024c-0.385,0.429-0.814,0.811-1.258,1.177
			c-0.003-0.047-0.003-0.072-0.005-0.11c-0.001,0.001-0.003,0.002-0.004,0.003c-0.013,0.014-0.027,0.027-0.04,0.041
			c-0.027,0.026-0.055,0.053-0.081,0.082c-0.021,0.021-0.04,0.042-0.06,0.063c0.036-0.001,0.071-0.002,0.107,0
			c-0.323,0.485-0.775,0.857-1.144,1.304c-0.288,0.348-0.535,0.731-0.869,1.041c0,0,0,0,0.001,0
			c-0.199,0.325-0.398,0.649-0.669,0.921c-0.225,0.409-0.468,0.805-0.757,1.172c0,0,0,0,0.001,0c-0.052,0.16-0.11,0.316-0.25,0.425
			c0.001,0,0.001,0.001,0.002,0.001c-0.071,0.219-0.172,0.42-0.337,0.585c0,0,0.001,0,0.002,0.001
			c-0.187,0.463-0.402,0.912-0.668,1.336c0,0,0.001-0.001,0.002-0.002c-0.198,0.542-0.411,1.08-0.676,1.595
			c0.002-0.001,0.003-0.003,0.004-0.004c-0.171,0.594-0.361,1.184-0.588,1.759c-0.011,0.118,0.008,0.244-0.086,0.341
			c0.002-0.001,0.002-0.005,0.005-0.006c-0.198,0.896-0.395,1.792-0.593,2.688c-0.013-0.148,0-0.293,0.005-0.439
			c-0.02,0.113-0.044,0.226-0.062,0.339c-0.012,0.039-0.022,0.078-0.028,0.119c-0.032,0.175-0.016,0.353-0.032,0.528
			c-0.003,0.011-0.002,0.021-0.005,0.032c0.012,0.001,0.024,0.002,0.037,0.004c0.02-0.199-0.096-0.419,0.092-0.592
			c-0.027,0.197,0.026,0.407-0.091,0.592c0.001,0,0.003,0,0.004,0c-0.01,0.193-0.003,0.389-0.065,0.574
			c0.002,0.031-0.006,0.063-0.023,0.097c0.002-0.002,0.002-0.005,0.005-0.007c-0.025,0.366,0.034,0.739-0.089,1.098
			c0.002,0.001,0.003,0.001,0.005,0.002c-0.001,0.864-0.033,1.73,0.006,2.593c0.046,1.041,0.159,2.077,0.351,3.104
			c0.056,0.301,0.097,0.604,0.146,0.905c-0.002-0.002-0.003-0.004-0.005-0.006c0.166,0.437,0.247,0.893,0.341,1.347
			c-0.061-0.072-0.103-0.153-0.146-0.234c0.014,0.061,0.032,0.12,0.046,0.181c0.01,0.04,0.021,0.08,0.037,0.118
			c0.029,0.099,0.062,0.195,0.092,0.294c-0.026-0.122-0.057-0.244-0.035-0.366c0.205,0.522,0.344,1.064,0.507,1.6
			c-0.001-0.001-0.002-0.002-0.003-0.003c0.309,0.755,0.618,1.509,0.926,2.265c0,0,0,0,0-0.001c0.207,0.312,0.375,0.646,0.501,0.998
			c-0.001,0.001-0.002,0-0.003,0.001c0.263,0.37,0.478,0.766,0.677,1.173c-0.002,0-0.002,0-0.004,0
			c0.28,0.375,0.537,0.765,0.755,1.179l0,0c0.231,0.252,0.44,0.521,0.59,0.831c-0.028,0.003-0.055,0.001-0.083,0.003
			c0.011,0.016,0.021,0.032,0.033,0.047c0.023,0.03,0.046,0.06,0.072,0.087c0.022,0.026,0.045,0.053,0.069,0.078
			c-0.007-0.043-0.017-0.085-0.018-0.129c0.246,0.212,0.424,0.479,0.591,0.754c0,0,0,0-0.001,0c0.463,0.49,0.928,0.977,1.343,1.509
			c-0.032,0.001-0.064,0-0.097,0.001c0.007,0.008,0.013,0.016,0.02,0.023c0.025,0.028,0.05,0.057,0.078,0.082
			c0.013,0.013,0.025,0.027,0.039,0.04c0.025,0.027,0.05,0.055,0.076,0.08c0.005,0.005,0.01,0.01,0.015,0.016
			c0.014-0.025,0.024-0.051,0.036-0.076c0.446,0.363,0.86,0.759,1.258,1.174c-0.039,0.003-0.077,0.002-0.115,0.002
			c0.003,0.003,0.006,0.006,0.009,0.009c0.014,0.013,0.027,0.026,0.042,0.039c0.028,0.026,0.057,0.052,0.087,0.074
			c0.009,0.007,0.019,0.014,0.029,0.021c0.011-0.021,0.021-0.044,0.033-0.065c0.411,0.282,0.788,0.606,1.162,0.934
			c-0.038-0.001-0.076-0.002-0.114-0.003c0.001,0,0.002,0.001,0.003,0.002c0.015,0.011,0.029,0.023,0.043,0.035
			c0.028,0.024,0.055,0.049,0.083,0.072c0.014,0.012,0.027,0.025,0.041,0.037c0.027,0.025,0.055,0.05,0.084,0.071
			c0.005,0.004,0.01,0.007,0.016,0.011c0.008-0.024,0.011-0.043,0.022-0.07c0.471,0.271,0.905,0.595,1.334,0.927
			c0,0,0-0.001,0.001-0.002c0.112,0.014,0.195,0.068,0.255,0.163c0.394,0.216,0.792,0.424,1.16,0.685
			c0.204,0.096,0.413,0.182,0.592,0.323c0-0.001,0-0.001,0-0.002c0.304,0.093,0.571,0.261,0.839,0.423c0,0,0-0.001,0.001-0.002
			c0.541,0.199,1.065,0.436,1.586,0.679c0.074-0.001,0.143,0.014,0.189,0.08c0.023-0.01,0.043-0.006,0.059,0.014
			c0.15,0.029,0.296,0.066,0.422,0.158c0.091,0.005,0.184,0.007,0.251,0.084l0,0c0.265,0.041,0.516,0.125,0.753,0.249l0,0
			c0.099-0.003,0.197,0,0.272,0.079c0.023-0.011,0.043-0.007,0.061,0.013c0.292,0.038,0.569,0.127,0.841,0.235
			c0.145,0.018,0.299-0.009,0.425,0.094c0.027-0.008,0.052-0.004,0.075,0.013c0.368,0.06,0.736,0.118,1.093,0.229
			c0.055,0.007,0.109,0.014,0.164,0.021c0.118-0.003,0.239-0.02,0.336,0.073c0-0.001-0.001,0-0.001-0.001
			c0.023,0.032,0.05,0.036,0.081,0.011c0.029,0,0.058,0,0.086,0c0.144,0.01,0.296-0.032,0.424,0.07c0-0.001,0-0.003,0-0.004h0l0,0
			l0,0c0.586,0.045,1.174,0.07,1.754,0.173c0.334,0.004,0.669,0.008,1.003,0.012c0.307,0,0.613,0,0.919,0
			c0.352-0.005,0.704-0.011,1.055-0.016c0.148-0.109,0.321-0.047,0.482-0.065c0.52-0.059,1.041-0.107,1.561-0.16
			c0.074-0.036,0.151-0.032,0.23-0.024c0.076-0.087,0.176-0.061,0.271-0.059c0.056-0.007,0.113-0.015,0.169-0.022
			c0.415-0.104,0.831-0.204,1.257-0.249l0,0c0.097-0.085,0.217-0.086,0.336-0.085c0,0-0.001,0.001-0.001,0.001
			c0.3-0.109,0.605-0.203,0.922-0.25c0,0,0,0,0,0.001c0.437-0.167,0.881-0.311,1.333-0.431l0,0c0.067-0.083,0.164-0.076,0.255-0.084
			c0,0.001-0.001,0.001-0.001,0.003c0.122-0.096,0.264-0.146,0.415-0.172c0,0.002,0,0.003,0,0.005
			c0.232-0.158,0.507-0.213,0.764-0.312l0.024-0.021h0.033c0.042-0.011,0.073-0.039,0.108-0.062c0.026-0.01,0.053-0.021,0.08-0.031
			c0.1-0.081,0.216-0.127,0.342-0.148h0.001c0.039-0.06,0.097-0.076,0.164-0.071c0.015-0.021,0.036-0.029,0.061-0.022
			c0.13-0.111,0.283-0.18,0.444-0.229l0.024-0.021h0.033c0.043-0.009,0.073-0.039,0.108-0.062c0.015-0.021,0.036-0.029,0.061-0.022
			c0.13-0.111,0.283-0.18,0.444-0.229c0.013-0.021,0.031-0.028,0.054-0.022c0.047-0.01,0.081-0.041,0.114-0.074
			c0.15-0.11,0.297-0.227,0.486-0.268c0,0.001,0.002,0.003,0.002,0.005c0.041-0.013,0.067-0.045,0.098-0.07l0.001-0.001
			c0.038-0.061,0.094-0.088,0.163-0.095c0,0.001-0.001,0.001-0.001,0.002c0.121-0.114,0.262-0.195,0.418-0.249l0,0.001
			c0.032-0.021,0.057-0.053,0.091-0.071l0.006-0.004c0.417-0.279,0.833-0.558,1.25-0.837l0.004-0.003
			c0.018-0.028,0.042-0.049,0.073-0.062c0.013-0.026,0.033-0.038,0.062-0.036c0.413-0.351,0.836-0.688,1.279-0.999l0,0
			c0.457-0.465,0.975-0.863,1.421-1.34c0.378-0.403,0.779-0.785,1.169-1.177c0,0.001,0,0.001,0.001,0.002
			c0.041-0.023,0.07-0.056,0.085-0.101c-0.005-0.025,0.004-0.044,0.028-0.056c0.437-0.54,0.874-1.079,1.311-1.619
			c-0.004-0.027,0.006-0.047,0.029-0.061c0.036-0.122,0.118-0.21,0.215-0.286c-0.006-0.024,0.002-0.04,0.025-0.049
			c0.076-0.161,0.178-0.304,0.304-0.429c0.016-0.026,0.031-0.053,0.047-0.079c0.013-0.031,0.032-0.058,0.058-0.079h0
			c0.028-0.029,0.06-0.057,0.074-0.096c-0.002,0-0.003,0.001-0.005,0.001c0.157-0.357,0.385-0.672,0.604-0.992l0-0.001
			c0.163-0.357,0.343-0.705,0.576-1.022c-0.006-0.029,0.002-0.053,0.026-0.07c0.018-0.029,0.037-0.059,0.058-0.087
			c-0.001-0.001-0.001-0.001-0.002-0.001c0.172-0.432,0.366-0.854,0.591-1.261c0.008-0.025,0.017-0.051,0.025-0.076
			c0.017-0.03,0.036-0.059,0.056-0.087c0,0-0.001,0.001-0.001,0.001c0.131-0.435,0.291-0.857,0.506-1.257
			c-0.001-0.001-0.001-0.001-0.002-0.001c-0.012-0.099,0.013-0.186,0.086-0.256c-0.01-0.027-0.005-0.053,0.015-0.074
			c0.039-0.051,0.028-0.122,0.07-0.171c0,0-0.001,0.001-0.001,0.001c0.012-0.183,0.062-0.354,0.167-0.505c0,0,0,0-0.001,0
			c0.014-0.18,0.058-0.351,0.156-0.504c0.013-0.236,0.072-0.459,0.185-0.668c-0.01-0.028-0.006-0.056,0.012-0.08
			c-0.008-0.094,0.008-0.181,0.071-0.255c0.004-0.027,0.008-0.054,0.012-0.081c-0.004-0.095,0.004-0.186,0.069-0.263
			c-0.012-0.025-0.008-0.049,0.01-0.071c0.047-0.252,0.066-0.512,0.165-0.753c-0.015-0.06-0.017-0.117,0.018-0.172
			c0.003-0.087-0.006-0.177,0.061-0.248c0.002-0.027,0.005-0.056,0.008-0.084c-0.019-0.124-0.001-0.241,0.075-0.345
			c-0.011-0.026-0.009-0.051,0.008-0.073c-0.012-0.098-0.05-0.201,0.071-0.263c0,0.001,0,0.002,0,0.003
			c0.119-0.109,0.264-0.06,0.396-0.06c2.702-0.003,5.404-0.002,8.105-0.002c0.056,0,0.112,0.002,0.168,0
			c0.184-0.01,0.269,0.062,0.295,0.259c0.141,1.048,0.376,2.076,0.673,3.09c0.316,1.081,0.696,2.14,1.164,3.166
			c0.074,0.163,0.132,0.334,0.197,0.501c0.063,0.039,0.075,0.104,0.081,0.17c0.307,0.55,0.614,1.101,0.921,1.65
			c0.112,0.202,0.225,0.404,0.337,0.606l0,0c0.26,0.312,0.466,0.658,0.67,1.007H82.87c0.178,0.168,0.32,0.36,0.416,0.588l0,0
			c0.342,0.365,0.655,0.754,0.927,1.175c-0.001,0-0.001-0.001-0.002-0.001c0.019,0.036,0.045,0.062,0.08,0.081
			c0-0.001,0-0.001,0-0.002c0.307,0.239,0.525,0.562,0.785,0.846c0.569,0.621,1.213,1.163,1.804,1.762l0,0
			c0.479,0.387,0.956,0.772,1.435,1.158l0,0c0.223,0.103,0.423,0.238,0.588,0.422c0-0.001-0.001-0.002-0.001-0.003
			c0.188,0.083,0.357,0.191,0.499,0.342c0.068,0.005,0.124,0.032,0.159,0.093c0.104,0.028,0.19,0.079,0.253,0.167v-0.001
			c0.188,0.081,0.37,0.171,0.509,0.328c0-0.001,0-0.001,0-0.002c0.118,0.004,0.206,0.078,0.303,0.133
			c1.32,0.756,2.691,1.4,4.131,1.898c0.038,0.013,0.069,0.044,0.104,0.066l0.034-0.004l0.029,0.018
			c0.646,0.192,1.291,0.385,1.937,0.577l0.039-0.004l0.036,0.016c0.508,0.088,1.014,0.182,1.51,0.321c-0.001,0-0.002,0-0.002-0.001
			c0.152-0.003,0.308-0.017,0.44,0.082l0.032-0.006l0.029,0.016c0.293-0.039,0.575,0.048,0.861,0.082
			c0.411,0.05,0.822,0.094,1.236,0.098c0.07,0.001,0.139,0.009,0.192,0.061c0.354,0.005,0.708,0.011,1.062,0.016
			c0.277,0,0.556,0.001,0.834,0.001c0.057-0.001,0.113-0.001,0.171-0.002c0.083-0.022,0.166-0.022,0.249,0
			c0.112-0.025,0.225-0.025,0.337,0c0.056,0,0.11,0,0.166-0.001c0.028-0.001,0.057-0.002,0.085-0.003
			c0.298-0.126,0.611-0.076,0.92-0.079c0.028-0.001,0.057-0.002,0.085-0.002c0.384-0.106,0.778-0.134,1.173-0.16
			c0.053-0.005,0.106-0.01,0.159-0.015c0.027-0.022,0.059-0.032,0.09-0.037c0.08-0.029,0.164-0.037,0.251-0.033
			c0.054-0.005,0.107-0.009,0.161-0.014c0.387-0.114,0.78-0.199,1.182-0.247l0.027-0.016l0.03,0.006
			c0.704-0.197,1.407-0.395,2.111-0.593c0,0.001,0,0.002,0,0.003c0.042-0.066,0.106-0.07,0.175-0.063l0.027-0.02l0.033,0.002
			c0.047-0.068,0.114-0.083,0.19-0.078c0.3-0.132,0.597-0.272,0.921-0.336h-0.001c0.183-0.116,0.382-0.193,0.591-0.246
			c0.089-0.101,0.218-0.115,0.335-0.155c0.015-0.021,0.035-0.029,0.061-0.023c0.1-0.099,0.221-0.147,0.358-0.155h0.002
			c0.039-0.06,0.096-0.085,0.166-0.084h0.001c0.148-0.121,0.316-0.204,0.502-0.25l0.002-0.001c0.039-0.061,0.096-0.085,0.165-0.084
			l0.002-0.001c0.145-0.122,0.317-0.194,0.49-0.267c0,0.002,0,0.002,0,0.004c0.175-0.148,0.373-0.256,0.586-0.339
			c0.001-0.001,0.002-0.001,0.003-0.002l-0.002,0.002c0.001,0,0.001-0.001,0.002-0.001v0.001c0.328-0.228,0.658-0.45,1.014-0.634
			c0.011-0.025,0.03-0.037,0.058-0.034c0.299-0.243,0.612-0.467,0.947-0.657h0.001c0.062-0.085,0.147-0.138,0.243-0.176l0,0
			c0.614-0.503,1.229-1.007,1.843-1.511c0.108-0.171,0.251-0.308,0.419-0.419c0,0.001,0,0.002-0.001,0.003
			c0.035-0.021,0.064-0.049,0.083-0.085c0.038-0.02,0.067-0.049,0.088-0.086l-0.006,0.006c0.038-0.018,0.064-0.051,0.095-0.079
			c0.025-0.028,0.054-0.052,0.087-0.071l0.007-0.006c0.121-0.211,0.283-0.384,0.484-0.52c0,0.001,0.001,0.002,0.001,0.002
			C120.334,90.902,120.361,90.875,120.38,90.84L120.38,90.84z M57.259,24.663C57.354,15.344,64.905,7.68,74.53,7.77
			c9.369,0.087,16.899,7.659,16.944,17.102c-0.031,9.446-7.726,17.298-17.487,17.107C64.806,41.8,57.162,34.305,57.259,24.663z
			 M53.618,51.381c-0.074,0.008-0.142-0.001-0.19-0.068C53.501,51.306,53.572,51.309,53.618,51.381z M45.891,91.42
			c-9.533-0.013-17.313-7.783-17.12-17.478c0.183-9.159,7.533-16.669,16.958-16.743c9.607-0.075,17.411,7.688,17.244,17.417
			C62.814,83.875,55.298,91.355,45.891,91.42z M83.838,59.195c-1.575,1.959-2.809,4.115-3.706,6.463
			c-0.544,1.421-0.952,2.878-1.216,4.376c-0.04,0.229,0,0.526-0.161,0.668c-0.166,0.146-0.455,0.049-0.689,0.049
			c-2.582,0.004-5.165,0.003-7.747,0.002c-0.533,0-0.537,0.001-0.619-0.51c-0.155-0.965-0.375-1.914-0.655-2.85
			c-0.677-2.258-1.659-4.372-2.952-6.345c-0.905-1.381-1.946-2.653-3.106-3.823c-0.686-0.691-1.409-1.349-2.193-1.934
			c-0.298-0.223-0.294-0.228-0.082-0.551c1.543-2.356,3.085-4.714,4.632-7.068c0.188-0.287,0.129-0.299,0.485-0.167
			c1.557,0.58,3.157,1.007,4.8,1.258c0.659,0.101,1.324,0.169,1.992,0.216c0.807,0.057,1.612,0.062,2.42,0.05
			c1.185-0.018,2.358-0.148,3.524-0.352c1.333-0.232,2.639-0.573,3.911-1.035c0.344-0.125,0.352-0.119,0.535,0.161
			c1.613,2.46,3.225,4.921,4.854,7.409c-0.663,0.543-1.287,1.076-1.883,1.643C85.211,57.586,84.502,58.37,83.838,59.195z
			 M102.562,91.413c-9.388-0.073-17.133-7.771-16.945-17.479c0.177-9.135,7.578-16.772,17.178-16.736
			c9.47,0.035,17.058,7.752,17.018,17.135C119.827,83.662,112.18,91.487,102.562,91.413z"/>
		<path d="M148.051,115.299c-0.003-0.248-0.005-0.496-0.007-0.743c-0.019-0.022-0.022-0.048-0.011-0.074
			c-0.101-0.1-0.042-0.229-0.067-0.344c-0.006-0.081-0.012-0.161-0.017-0.242c-0.088-0.071-0.052-0.17-0.059-0.259
			c-0.041-0.078-0.03-0.161-0.025-0.244c-0.081-0.071-0.066-0.168-0.067-0.26c-0.005-0.054-0.011-0.106-0.017-0.159
			c-0.066-0.043-0.064-0.108-0.059-0.175c-0.011-0.071-0.021-0.143-0.032-0.214c-0.021-0.069-0.031-0.141-0.06-0.206
			c-0.009-0.044-0.018-0.088-0.025-0.131c-0.001-0.047-0.035-0.079-0.05-0.12c-0.009-0.053-0.018-0.106-0.025-0.16
			c-0.063-0.043-0.082-0.103-0.068-0.176c-0.021-0.021-0.027-0.047-0.016-0.075c-0.062-0.043-0.082-0.104-0.068-0.176
			c-0.021-0.022-0.026-0.047-0.016-0.076c-0.062-0.043-0.082-0.103-0.068-0.176c-0.021-0.021-0.026-0.044-0.017-0.071
			c-0.021-0.03-0.041-0.062-0.058-0.095c-0.012-0.044-0.023-0.087-0.034-0.131c-0.001-0.05-0.033-0.084-0.06-0.122
			c-0.021-0.021-0.026-0.044-0.016-0.071c-0.022-0.03-0.042-0.062-0.06-0.095c-0.025-0.019-0.034-0.043-0.024-0.073
			c-0.022-0.03-0.042-0.062-0.059-0.095c-0.026-0.018-0.035-0.042-0.025-0.072c-0.022-0.03-0.041-0.062-0.059-0.096
			c-0.026-0.018-0.034-0.042-0.025-0.072c-0.021-0.03-0.041-0.062-0.059-0.095c-0.024-0.017-0.034-0.039-0.027-0.068
			c-0.017-0.038-0.044-0.069-0.07-0.101l-0.024-0.016l0.005-0.028c-0.002-0.054-0.035-0.09-0.074-0.12
			c-0.023-0.027-0.045-0.055-0.064-0.086c-0.026-0.005-0.036-0.02-0.028-0.046c-0.003-0.054-0.035-0.088-0.074-0.12
			c-0.025-0.028-0.049-0.059-0.069-0.091l-0.007-0.01c-0.032-0.012-0.051-0.035-0.059-0.067c-0.03-0.014-0.042-0.037-0.036-0.069
			c-0.02-0.041-0.047-0.074-0.088-0.097c-0.02-0.032-0.046-0.059-0.078-0.078c-0.001-0.002-0.004-0.003-0.005-0.005
			c-0.02-0.033-0.046-0.06-0.079-0.079c-0.001-0.002-0.004-0.003-0.005-0.005c-0.02-0.033-0.046-0.06-0.079-0.079
			c-0.001-0.002-0.004-0.003-0.005-0.005c-0.02-0.033-0.046-0.06-0.079-0.079c-0.001-0.002-0.004-0.003-0.005-0.005
			c-0.021-0.034-0.048-0.063-0.083-0.083l0.005,0.004c-0.021-0.037-0.051-0.066-0.089-0.088l0.005,0.005
			c-0.022-0.04-0.056-0.068-0.097-0.088c-0.032,0.006-0.055-0.006-0.069-0.035c-0.032-0.009-0.056-0.027-0.067-0.06l-0.01-0.006
			c-0.032-0.021-0.062-0.044-0.091-0.069c-0.031-0.039-0.066-0.072-0.12-0.074c-0.026,0.008-0.041-0.002-0.045-0.029
			c-0.031-0.019-0.06-0.041-0.087-0.064c-0.03-0.039-0.065-0.071-0.118-0.074l-0.029,0.005l-0.017-0.024
			c-0.031-0.026-0.062-0.054-0.101-0.07c-0.028,0.007-0.052-0.003-0.068-0.027c-0.033-0.017-0.064-0.037-0.095-0.059
			c-0.03,0.01-0.055,0.001-0.072-0.025c-0.05,0.011-0.077-0.017-0.095-0.059c-0.03,0.01-0.055,0.001-0.073-0.024
			c-0.04-0.018-0.073-0.051-0.12-0.052l-0.029,0.006l-0.017-0.024c-0.036-0.03-0.071-0.062-0.122-0.064
			c-0.044-0.012-0.087-0.022-0.131-0.034c-0.05,0.012-0.077-0.016-0.095-0.058c-0.027,0.01-0.051,0.005-0.071-0.017
			c-0.038-0.025-0.072-0.058-0.122-0.059c-0.043-0.012-0.087-0.023-0.131-0.035c-0.04-0.016-0.073-0.05-0.121-0.05
			c-0.043-0.011-0.087-0.022-0.13-0.034c-0.04-0.016-0.073-0.049-0.119-0.05c-0.044-0.009-0.088-0.017-0.132-0.025
			c-0.073,0.017-0.132-0.005-0.176-0.066c-0.053-0.009-0.106-0.018-0.16-0.025c-0.067,0.006-0.133,0.008-0.175-0.059
			c-0.054-0.009-0.107-0.017-0.16-0.025c-0.067,0.006-0.132,0.008-0.175-0.059c-0.054-0.009-0.107-0.017-0.16-0.025
			c-0.074,0.005-0.147,0.009-0.205-0.051c-0.071-0.011-0.143-0.022-0.214-0.033c-0.074,0.005-0.148,0.009-0.206-0.051
			c-0.071-0.008-0.142-0.017-0.212-0.024c-0.101-0.002-0.202,0.008-0.289-0.06c-0.001,0-0.001,0-0.002,0
			c-0.07-0.008-0.141-0.017-0.212-0.024c-0.114-0.024-0.244,0.034-0.344-0.066c-0.081-0.006-0.161-0.012-0.242-0.018
			c-0.125-0.021-0.261,0.024-0.376-0.06c-0.126-0.008-0.252-0.016-0.378-0.023c-0.153-0.023-0.315,0.027-0.459-0.061
			c-0.154-0.008-0.309-0.016-0.463-0.023c-0.225-0.041-0.462,0.05-0.679-0.066c-0.277-0.01-0.556,0.034-0.831-0.026
			c-0.396,0-0.794,0.002-1.191-0.003c-0.12-0.002-0.248,0.036-0.357-0.05c-0.558,0-1.115,0-1.673,0
			c-0.223,0.103-0.458,0.039-0.688,0.049c-0.314,0.014-0.63,0.01-0.945,0.013c-0.249,0.006-0.497,0.012-0.746,0.018
			c-0.217,0.115-0.454,0.026-0.679,0.066c-0.164,0.006-0.329,0.012-0.493,0.017c-0.13,0.111-0.285,0.035-0.427,0.059
			c-0.123,0.053-0.254,0.019-0.38,0.032c-0.115,0.084-0.251,0.038-0.375,0.061c-0.081,0.005-0.162,0.011-0.243,0.017
			c-0.1,0.101-0.229,0.042-0.344,0.066c-0.081,0.006-0.162,0.012-0.243,0.018c-0.07,0.088-0.169,0.052-0.258,0.058
			c-0.071,0.012-0.143,0.022-0.213,0.033c-0.059,0.061-0.132,0.056-0.206,0.051c-0.071,0.011-0.142,0.022-0.213,0.033
			c-0.059,0.059-0.132,0.055-0.206,0.051c-0.054,0.009-0.107,0.017-0.161,0.025c-0.042,0.066-0.107,0.064-0.175,0.059
			c-0.053,0.009-0.106,0.017-0.16,0.025c-0.043,0.065-0.107,0.064-0.175,0.059c-0.053,0.008-0.106,0.017-0.16,0.025
			c-0.043,0.062-0.103,0.082-0.176,0.066c-0.044,0.009-0.087,0.017-0.131,0.025c-0.046,0.001-0.079,0.034-0.12,0.05
			c-0.043,0.012-0.087,0.022-0.131,0.034c-0.047,0.001-0.08,0.034-0.12,0.051c-0.025,0.009-0.051,0.017-0.076,0.024
			c-0.043,0.062-0.104,0.082-0.176,0.068c-0.021,0.021-0.045,0.026-0.072,0.017c-0.018,0.042-0.044,0.069-0.095,0.058
			c-0.043,0.012-0.087,0.023-0.13,0.034c-0.052,0.002-0.087,0.034-0.123,0.064l-0.017,0.024l-0.028-0.006
			c-0.047,0-0.081,0.034-0.121,0.052c-0.018,0.025-0.042,0.034-0.072,0.024c-0.018,0.042-0.045,0.069-0.096,0.059
			c-0.018,0.026-0.042,0.035-0.072,0.025c-0.031,0.021-0.062,0.043-0.095,0.063c-0.005,0.026-0.021,0.036-0.047,0.028
			c-0.051,0.002-0.086,0.034-0.122,0.064l-0.017,0.024l-0.028-0.005c-0.053,0.003-0.088,0.035-0.119,0.074
			c-0.027,0.023-0.055,0.045-0.086,0.064c-0.005,0.026-0.02,0.036-0.046,0.028c-0.055,0.004-0.09,0.036-0.122,0.076l0.004-0.002
			c-0.029,0.025-0.061,0.05-0.093,0.07l-0.01,0.007c-0.012,0.031-0.035,0.051-0.067,0.059c-0.014,0.029-0.037,0.041-0.068,0.036
			c-0.042,0.019-0.075,0.046-0.097,0.087c-0.033,0.02-0.06,0.046-0.079,0.079c-0.038,0.021-0.067,0.05-0.089,0.088
			c-0.033,0.02-0.06,0.046-0.079,0.079c-0.038,0.021-0.067,0.051-0.088,0.089l0.004-0.005c-0.037,0.021-0.067,0.051-0.088,0.089
			c-0.034,0.02-0.062,0.047-0.081,0.081c-0.044,0.026-0.075,0.061-0.079,0.115c0.003,0.03-0.01,0.046-0.04,0.048
			c-0.01,0.032-0.03,0.055-0.062,0.067l-0.006,0.01c-0.021,0.033-0.045,0.062-0.069,0.091c-0.039,0.032-0.071,0.066-0.074,0.12
			c0.008,0.026-0.002,0.041-0.029,0.046c-0.019,0.031-0.041,0.06-0.065,0.086l0.002-0.002c-0.04,0.031-0.072,0.067-0.075,0.121
			l0.005,0.028l-0.023,0.017c-0.027,0.031-0.055,0.062-0.071,0.102c0.007,0.028-0.002,0.051-0.026,0.067
			c-0.018,0.033-0.037,0.064-0.06,0.095c0.009,0.03,0.001,0.055-0.025,0.072c-0.017,0.033-0.036,0.065-0.059,0.096
			c0.01,0.03,0.001,0.054-0.024,0.072c-0.018,0.033-0.037,0.064-0.06,0.095c0.01,0.03,0.002,0.055-0.024,0.073
			c-0.018,0.04-0.052,0.073-0.051,0.121l0.005,0.028l-0.023,0.017c-0.031,0.035-0.062,0.07-0.064,0.122
			c-0.012,0.043-0.023,0.087-0.035,0.131c0.012,0.05-0.016,0.076-0.058,0.095c0.01,0.027,0.005,0.051-0.017,0.071
			c0.014,0.073-0.006,0.133-0.068,0.176c0.011,0.028,0.006,0.054-0.015,0.076c0.014,0.072-0.007,0.133-0.068,0.176
			c0.011,0.028,0.006,0.054-0.016,0.075c0.014,0.073-0.006,0.133-0.068,0.177c-0.009,0.053-0.018,0.106-0.025,0.159
			c0.005,0.067,0.008,0.133-0.059,0.175c0.011,0.029,0.006,0.054-0.016,0.076c-0.004,0.091,0.013,0.188-0.068,0.26
			c-0.009,0.053-0.017,0.106-0.025,0.16c0.006,0.066,0.008,0.132-0.059,0.175c-0.005,0.053-0.011,0.105-0.017,0.159
			c-0.002,0.101,0.008,0.203-0.06,0.29c0-0.001,0-0.003,0-0.004c-0.001,0.001,0,0.003-0.001,0.004
			c-0.011,0.071-0.021,0.143-0.032,0.214c-0.005,0.099,0.023,0.202-0.051,0.289c-0.008,0.07-0.017,0.142-0.024,0.212
			c-0.021,0.125,0.024,0.261-0.061,0.376c-0.013,0.126,0.021,0.257-0.031,0.38c-0.013,0.125,0.033,0.258-0.052,0.373
			c-0.019,0.183,0.024,0.368-0.032,0.548c-0.026,0.236,0.05,0.479-0.053,0.71c-0.002,1.156-0.004,2.312-0.006,3.468
			c0.123,0.245,0.021,0.51,0.067,0.762c0.006,0.164,0.011,0.329,0.017,0.494c0.105,0.129,0.039,0.286,0.067,0.427
			c0.005,0.109,0.011,0.219,0.017,0.327c0.102,0.101,0.04,0.228,0.059,0.342c0.041,0.078,0.029,0.162,0.025,0.245
			c0.1,0.099,0.041,0.229,0.066,0.343c0.006,0.054,0.012,0.106,0.017,0.16c0.088,0.07,0.053,0.169,0.059,0.258
			c0.009,0.054,0.018,0.106,0.025,0.16c0.081,0.071,0.066,0.168,0.067,0.26c0.008,0.043,0.016,0.086,0.024,0.129
			c0.059,0.059,0.055,0.132,0.051,0.205c0.011,0.043,0.021,0.086,0.032,0.13c0.02,0.068,0.031,0.14,0.06,0.207
			c0.009,0.043,0.018,0.086,0.026,0.129c0,0.048,0.033,0.081,0.05,0.121c0.011,0.043,0.022,0.087,0.033,0.13
			c0,0.048,0.034,0.081,0.05,0.121c0.012,0.044,0.022,0.087,0.034,0.131c0,0.047,0.034,0.08,0.05,0.121
			c0.012,0.043,0.023,0.087,0.035,0.131c0.001,0.049,0.033,0.084,0.059,0.121c0.021,0.021,0.026,0.045,0.017,0.072
			c0.021,0.03,0.041,0.062,0.059,0.095c0.008,0.025,0.016,0.051,0.024,0.076c0.062,0.042,0.079,0.104,0.073,0.176l0.024,0.017
			l-0.005,0.029c0.002,0.051,0.033,0.086,0.064,0.122l0.024,0.017l-0.005,0.028c0.002,0.052,0.033,0.087,0.064,0.123l0.023,0.017
			l-0.004,0.028c0.002,0.053,0.036,0.088,0.067,0.124l0.001,0.003c0.029,0.019,0.047,0.044,0.057,0.077
			c0.011,0.024,0.022,0.049,0.034,0.073c0.021,0.031,0.043,0.062,0.062,0.096c0.027,0.004,0.037,0.019,0.029,0.045
			c0.003,0.054,0.035,0.089,0.074,0.12c0.024,0.026,0.045,0.055,0.063,0.086c0.027,0.004,0.037,0.02,0.029,0.046
			c0.004,0.056,0.036,0.092,0.082,0.118l-0.006-0.005c0.02,0.038,0.051,0.065,0.083,0.092l-0.002-0.003
			c0.026,0.029,0.05,0.06,0.07,0.093l0.007,0.009c0.034,0.016,0.058,0.041,0.07,0.076l0.013,0.013
			c0.035,0.013,0.059,0.036,0.071,0.071l0.013,0.013c0.034,0.013,0.059,0.036,0.071,0.07l0.013,0.013
			c0.035,0.013,0.058,0.037,0.07,0.071l0.014,0.013c0.034,0.013,0.058,0.037,0.07,0.071l0.013,0.013
			c0.035,0.013,0.059,0.036,0.071,0.071l0.013,0.013c0.035,0.013,0.061,0.036,0.076,0.07l0.009,0.006
			c0.033,0.021,0.063,0.045,0.093,0.071l-0.003-0.002c0.027,0.034,0.059,0.062,0.1,0.081c0.032-0.006,0.055,0.007,0.069,0.036
			c0.032,0.009,0.058,0.028,0.076,0.056l0.003,0.002c0.032,0.026,0.063,0.057,0.103,0.074c0.032-0.006,0.056,0.007,0.069,0.036
			c0.032,0.009,0.059,0.027,0.076,0.056l0.003,0.002c0.037,0.031,0.072,0.065,0.125,0.067l0.028-0.005l0.017,0.023
			c0.031,0.027,0.062,0.055,0.101,0.071c0.029-0.007,0.052,0.002,0.068,0.027c0.05-0.011,0.077,0.017,0.094,0.059l0.041-0.001
			l0.032,0.026c0.033,0.017,0.065,0.036,0.096,0.059l0.038-0.004l0.033,0.02c0.037,0.026,0.072,0.059,0.122,0.059l0.028-0.004
			l0.017,0.023c0.071-0.005,0.134,0.012,0.177,0.074c0.025,0.008,0.051,0.017,0.076,0.024c0.04,0.018,0.073,0.051,0.121,0.051
			c0.044,0.012,0.087,0.022,0.13,0.034c0.05-0.012,0.077,0.016,0.095,0.058l0.039-0.004l0.033,0.021
			c0.072-0.014,0.133,0.006,0.177,0.067c0.053,0.009,0.106,0.018,0.159,0.026c0.041,0.016,0.074,0.05,0.121,0.049
			c0.044,0.012,0.087,0.023,0.131,0.034c0.066-0.006,0.132-0.007,0.174,0.059c0.054,0.009,0.107,0.018,0.161,0.026
			c0.066-0.006,0.132-0.009,0.175,0.058c0.053,0.009,0.106,0.017,0.16,0.025c0.066-0.006,0.132-0.008,0.175,0.059
			c0.053,0.006,0.106,0.011,0.159,0.017c0.092,0.001,0.188-0.014,0.26,0.067c0.053,0.005,0.106,0.011,0.159,0.017
			c0.092,0.001,0.188-0.014,0.259,0.067c0.083-0.005,0.167-0.016,0.245,0.025c0.1,0.005,0.204-0.023,0.291,0.051
			c0.099,0.009,0.201-0.016,0.295,0.032c0.1,0.005,0.204-0.023,0.29,0.052c0.099,0.008,0.197,0.016,0.296,0.023
			c0.152,0.024,0.315-0.027,0.46,0.062c0.126,0.007,0.252,0.015,0.378,0.022c0.18,0.034,0.371-0.039,0.543,0.061
			c-0.002,0-0.004,0-0.005,0c0.002,0.001,0.004,0,0.006,0.001c0.207,0.005,0.415,0.011,0.623,0.016
			c0.274,0.002,0.549,0.005,0.822,0.007c1.601-0.003,3.201-0.006,4.803-0.009c0.277,0.001,0.556,0.002,0.834,0.003
			c1.623-0.104,3.236-0.278,4.816-0.683c0.743-0.189,1.466-0.437,2.143-0.797c1.119-0.596,1.852-1.535,2.332-2.688
			c0.432-1.032,0.679-2.112,0.839-3.216c0.057-0.387,0.091-0.772,0.096-1.162c0.021-0.171-0.091-0.36,0.075-0.51
			c0-1.647,0-3.295,0-4.942C147.966,115.658,148.05,115.473,148.051,115.299z M143.098,122.958c-0.096,0.549-0.241,1.085-0.427,1.61
			c-0.314,0.887-0.924,1.466-1.803,1.788c-0.723,0.264-1.471,0.414-2.229,0.52c-1.813,0.251-3.639,0.266-5.462,0.211
			c-1.456-0.044-2.914-0.146-4.329-0.554c-0.39-0.112-0.761-0.267-1.119-0.454c-0.559-0.294-0.901-0.772-1.139-1.339
			c-0.407-0.973-0.558-2.003-0.679-3.04c-0.126-1.079-0.162-2.165-0.157-3.248c0.009-1.891,0.044-3.783,0.495-5.637
			c0.108-0.448,0.257-0.883,0.457-1.297c0.322-0.665,0.877-1.062,1.549-1.325c0.836-0.325,1.711-0.473,2.594-0.584
			c1.343-0.17,2.692-0.192,3.91-0.168c1.652-0.022,3.164,0.062,4.66,0.336c0.656,0.12,1.296,0.299,1.9,0.599
			c0.577,0.287,0.974,0.729,1.231,1.31c0.338,0.758,0.512,1.561,0.625,2.375c0.207,1.491,0.269,2.993,0.253,4.496
			C143.414,120.029,143.351,121.502,143.098,122.958z"/>
		<path d="M26.163,112.883c-0.048-0.095-0.024-0.197-0.032-0.296c-0.075-0.087-0.047-0.191-0.052-0.291
			c-0.011-0.071-0.022-0.143-0.033-0.214c-0.06-0.058-0.056-0.131-0.051-0.205c-0.011-0.071-0.021-0.143-0.033-0.214
			c-0.02-0.069-0.024-0.143-0.061-0.206c-0.021-0.021-0.027-0.047-0.015-0.075c-0.066-0.043-0.065-0.108-0.059-0.175
			c-0.011-0.043-0.022-0.086-0.034-0.129c0.002-0.049-0.032-0.083-0.05-0.123c-0.011-0.043-0.022-0.086-0.033-0.129
			c0.001-0.049-0.033-0.082-0.051-0.122c-0.008-0.025-0.017-0.051-0.024-0.076c-0.064-0.043-0.079-0.105-0.074-0.177l-0.024-0.017
			l0.006-0.028c0.001-0.048-0.033-0.082-0.052-0.121c-0.026-0.019-0.035-0.043-0.025-0.073c-0.021-0.03-0.041-0.062-0.059-0.095
			c-0.026-0.018-0.034-0.042-0.025-0.072c-0.021-0.031-0.04-0.062-0.059-0.096c-0.025-0.016-0.034-0.038-0.027-0.067
			c-0.015-0.039-0.042-0.071-0.071-0.101l-0.023-0.016l0.005-0.027c0-0.055-0.034-0.091-0.068-0.127l-0.001-0.003
			c-0.027-0.02-0.046-0.045-0.056-0.076c-0.029-0.014-0.041-0.037-0.036-0.068c-0.016-0.041-0.045-0.072-0.074-0.104l-0.002-0.004
			c-0.027-0.02-0.046-0.045-0.059-0.076c-0.029-0.001-0.042-0.017-0.039-0.045c-0.002-0.057-0.035-0.093-0.082-0.119
			c-0.019-0.035-0.045-0.062-0.08-0.08c-0.016-0.039-0.05-0.063-0.075-0.095l-0.001-0.004c-0.029-0.022-0.052-0.05-0.067-0.084
			l-0.014-0.014c-0.034-0.013-0.057-0.036-0.07-0.07l-0.013-0.013c-0.034-0.014-0.057-0.037-0.071-0.07l-0.013-0.014
			c-0.034-0.016-0.062-0.038-0.083-0.067l-0.003-0.002c-0.032-0.025-0.056-0.059-0.095-0.074c-0.018-0.034-0.044-0.06-0.078-0.078
			c-0.025-0.048-0.062-0.08-0.119-0.082c-0.03,0.003-0.045-0.011-0.048-0.04c-0.031-0.012-0.056-0.032-0.075-0.059l-0.003-0.002
			c-0.031-0.028-0.063-0.058-0.104-0.073c-0.023-0.013-0.046-0.024-0.069-0.037c-0.031-0.01-0.056-0.028-0.075-0.056l-0.003-0.001
			c-0.036-0.033-0.071-0.067-0.124-0.067c-0.027,0.008-0.042-0.002-0.047-0.029c-0.031-0.021-0.063-0.043-0.095-0.063l-0.042,0.001
			l-0.032-0.026c-0.032-0.018-0.063-0.037-0.094-0.059l-0.042,0.001l-0.032-0.025c-0.032-0.019-0.063-0.038-0.094-0.059h-0.042
			l-0.032-0.025c-0.039-0.02-0.072-0.053-0.12-0.051l-0.029,0.005l-0.017-0.023c-0.035-0.032-0.07-0.065-0.123-0.064
			c-0.043-0.012-0.087-0.023-0.13-0.035c-0.04-0.018-0.072-0.052-0.12-0.05l-0.029,0.006l-0.017-0.024
			c-0.071,0.006-0.134-0.01-0.176-0.073c-0.054-0.009-0.107-0.018-0.161-0.025c-0.04-0.019-0.073-0.052-0.12-0.05
			c-0.044-0.012-0.088-0.023-0.132-0.034c-0.066,0.006-0.131,0.007-0.173-0.059l-0.041,0.005l-0.036-0.021
			c-0.063-0.037-0.136-0.04-0.205-0.061c-0.072-0.012-0.144-0.022-0.216-0.033c-0.066,0.006-0.131,0.008-0.174-0.059
			c-0.053-0.005-0.106-0.011-0.16-0.017c-0.092-0.001-0.188,0.014-0.259-0.066c-0.053-0.006-0.106-0.012-0.159-0.018
			c-0.101-0.002-0.204,0.008-0.291-0.06l-0.026,0.009l-0.017-0.021c-0.086,0.007-0.173,0.024-0.255-0.021
			c-0.099-0.004-0.203,0.023-0.289-0.051c-0.099-0.008-0.197-0.016-0.296-0.023c-0.141-0.028-0.297,0.039-0.426-0.067
			c-0.138-0.002-0.278,0.027-0.413-0.025c-0.18-0.021-0.367,0.047-0.54-0.052c-0.042-0.006-0.085-0.013-0.127-0.02
			c-0.083,0.022-0.167,0.022-0.25,0c-0.113,0.02-0.227,0.034-0.338-0.012c-0.432-0.032-0.869,0.06-1.298-0.054
			c-0.485-0.002-0.969-0.003-1.454-0.005c-0.206,0.12-0.429,0.036-0.644,0.054c-0.206,0.017-0.414,0.01-0.621,0.013
			c-0.028,0.001-0.057,0.003-0.085,0.004c-0.166,0.005-0.332,0.011-0.498,0.016c-0.158,0.106-0.337,0.033-0.504,0.056
			c-0.123,0.054-0.253,0.02-0.379,0.032c0,0-0.001,0-0.001,0c-0.115,0.086-0.249,0.04-0.374,0.052
			c-0.095,0.048-0.198,0.024-0.297,0.032c-0.087,0.067-0.19,0.058-0.291,0.06c-0.07,0.008-0.141,0.016-0.211,0.024
			c-0.087,0.068-0.191,0.058-0.292,0.06c-0.053,0.006-0.106,0.012-0.159,0.018c-0.072,0.08-0.168,0.065-0.26,0.066
			c-0.043,0.008-0.086,0.017-0.128,0.024c-0.058,0.06-0.132,0.056-0.206,0.051c-0.054,0.009-0.107,0.017-0.161,0.025
			c-0.042,0.066-0.108,0.064-0.175,0.059c-0.043,0.011-0.087,0.021-0.13,0.032c-0.068,0.021-0.142,0.024-0.206,0.062l-0.035,0.02
			l-0.04-0.004c-0.043,0.062-0.103,0.082-0.176,0.068l-0.036,0.02l-0.04-0.005c-0.043,0.062-0.103,0.082-0.176,0.069l-0.035,0.02
			l-0.04-0.005c-0.043,0.062-0.104,0.082-0.176,0.068l-0.033,0.021l-0.039-0.004c-0.018,0.042-0.045,0.069-0.095,0.058
			c-0.043,0.012-0.086,0.022-0.128,0.034c-0.053-0.001-0.089,0.032-0.125,0.065l-0.016,0.023l-0.028-0.006
			c-0.048-0.001-0.082,0.032-0.122,0.052l-0.032,0.025l-0.041-0.001c-0.031,0.021-0.062,0.041-0.095,0.06l-0.031,0.025l-0.041-0.001
			c-0.031,0.021-0.062,0.041-0.095,0.06l-0.031,0.025l-0.041-0.001c-0.031,0.021-0.063,0.04-0.096,0.06
			c-0.016,0.024-0.039,0.033-0.067,0.026c-0.04,0.015-0.071,0.042-0.102,0.071l-0.015,0.023L6.663,108.2
			c-0.056,0.001-0.092,0.034-0.122,0.075c-0.027,0.023-0.055,0.043-0.085,0.061c-0.016,0.024-0.039,0.033-0.067,0.026
			c-0.041,0.017-0.072,0.045-0.103,0.074l-0.003,0.002c-0.02,0.026-0.045,0.047-0.076,0.059c-0.001,0.029-0.017,0.042-0.045,0.038
			c-0.058,0.002-0.095,0.034-0.121,0.083l0.006-0.006c-0.039,0.017-0.064,0.05-0.096,0.076l-0.003,0.001
			c-0.022,0.029-0.051,0.052-0.084,0.067l-0.014,0.014c-0.01,0.03-0.03,0.051-0.062,0.059c-0.013,0.029-0.036,0.041-0.068,0.036
			c-0.042,0.018-0.077,0.045-0.097,0.088l0.005-0.006c-0.037,0.019-0.064,0.048-0.084,0.084c-0.001,0.002-0.004,0.003-0.005,0.005
			c-0.034,0.019-0.061,0.045-0.079,0.079c-0.038,0.019-0.065,0.048-0.085,0.086c-0.038,0.019-0.066,0.047-0.086,0.084
			c0.001,0,0.002-0.002,0.003-0.003l-0.005,0.005c0-0.001,0.001-0.001,0.001-0.002c-0.035,0.019-0.062,0.047-0.081,0.082
			c-0.046,0.025-0.079,0.062-0.081,0.117c0.003,0.03-0.01,0.046-0.04,0.048c-0.011,0.031-0.031,0.054-0.061,0.067l-0.007,0.01
			c-0.021,0.03-0.044,0.061-0.069,0.089l-0.001,0.003c0,0,0-0.001,0-0.001c-0.04,0.03-0.073,0.065-0.074,0.12
			c0.007,0.026-0.002,0.041-0.029,0.046c-0.02,0.029-0.042,0.058-0.064,0.085c-0.026,0.082-0.087,0.117-0.126,0.029
			c-0.041-0.092-0.055-0.206,0.035-0.294c0.01-0.333-0.036-0.667,0.026-0.999c0.036-0.336-0.066-0.68,0.058-1.011
			c-0.001-0.125-0.002-0.25-0.002-0.375c-0.001-0.37,0.04-0.364-0.355-0.364c-1.36-0.001-2.719-0.004-4.079-0.006
			c0,7.54,0,15.08,0,22.62c0.138,0.008,0.277,0.022,0.416,0.022c1.243,0.002,2.485,0.003,3.728,0.001
			c0.541-0.001,0.456,0.047,0.457-0.476c0.002-4.439-0.002-8.88,0.003-13.319c0.001-1.016,0.214-1.989,0.702-2.889
			c0.66-1.22,1.698-2.006,2.956-2.527c1.551-0.644,3.185-0.88,4.849-0.919c1.127-0.025,2.257-0.042,3.383,0.076
			c0.872,0.092,1.737,0.214,2.567,0.513c0.806,0.291,1.425,0.789,1.799,1.58c0.391,0.826,0.503,1.708,0.505,2.6
			c0.01,5.109,0.003,10.22,0.001,15.329c0.097,0.011,0.193,0.03,0.29,0.031c1.312,0.002,2.625,0,3.937,0.001
			c0.072,0,0.123,0,0.166-0.002c0.09-0.017,0.134-0.061,0.151-0.15c0.002-0.043,0.003-0.093,0.003-0.165
			c0-5.055,0-10.108-0.001-15.163c0-0.097-0.007-0.194-0.01-0.292c-0.032-0.14-0.027-0.28-0.004-0.42
			c-0.006-0.042-0.013-0.084-0.02-0.126c0-0.001,0-0.001,0-0.002C26.129,113.141,26.175,113.008,26.163,112.883z"/>
		<path d="M113.039,113.637c-0.053-0.123-0.018-0.253-0.032-0.379c-0.068-0.087-0.058-0.191-0.06-0.293
			c-0.006-0.053-0.012-0.105-0.018-0.159c-0.08-0.071-0.065-0.167-0.066-0.26c-0.008-0.043-0.017-0.085-0.024-0.128
			c-0.02-0.069-0.031-0.141-0.06-0.207c-0.009-0.043-0.017-0.086-0.025-0.129c0-0.048-0.034-0.081-0.05-0.121
			c-0.012-0.044-0.022-0.087-0.034-0.13c0-0.048-0.034-0.081-0.05-0.122c-0.012-0.043-0.023-0.087-0.035-0.13
			c0-0.05-0.032-0.085-0.059-0.122c-0.021-0.021-0.026-0.045-0.017-0.072c-0.041-0.018-0.068-0.044-0.057-0.095
			c-0.012-0.043-0.023-0.087-0.035-0.131c-0.002-0.051-0.033-0.086-0.064-0.122l-0.024-0.016l0.005-0.029
			c-0.001-0.051-0.033-0.086-0.064-0.122l-0.023-0.017l0.005-0.029c-0.003-0.052-0.037-0.087-0.068-0.124l-0.001-0.003
			c-0.029-0.018-0.047-0.044-0.056-0.076c-0.012-0.024-0.023-0.049-0.035-0.073c-0.021-0.031-0.042-0.063-0.062-0.096
			c-0.027-0.004-0.037-0.02-0.029-0.045c-0.002-0.054-0.035-0.089-0.074-0.12c-0.023-0.027-0.045-0.055-0.064-0.086
			c-0.026-0.005-0.036-0.021-0.028-0.047c-0.004-0.053-0.036-0.087-0.074-0.119c-0.025-0.028-0.049-0.059-0.07-0.091l-0.006-0.01
			c-0.031-0.013-0.052-0.035-0.062-0.067c-0.03-0.002-0.043-0.018-0.039-0.047c-0.005-0.056-0.036-0.093-0.082-0.119
			c-0.02-0.033-0.046-0.06-0.079-0.079c-0.018-0.037-0.051-0.062-0.074-0.095l-0.002-0.003c-0.031-0.021-0.053-0.05-0.067-0.084
			l-0.013-0.014c-0.035-0.012-0.059-0.036-0.071-0.07l-0.013-0.013c-0.035-0.013-0.059-0.036-0.071-0.071l-0.013-0.013
			c-0.035-0.013-0.059-0.036-0.071-0.071l-0.013-0.013c-0.034-0.013-0.059-0.036-0.071-0.071l-0.013-0.013
			c-0.034-0.014-0.062-0.037-0.084-0.067l-0.003-0.001c-0.033-0.024-0.058-0.058-0.095-0.075c-0.02-0.033-0.046-0.06-0.079-0.079
			c-0.026-0.046-0.063-0.077-0.119-0.081c-0.029,0.003-0.045-0.01-0.047-0.04c-0.032-0.01-0.055-0.03-0.067-0.062l-0.01-0.006
			c-0.032-0.021-0.063-0.045-0.092-0.071l0.003,0.002c-0.027-0.034-0.06-0.062-0.101-0.081c-0.032,0.006-0.055-0.007-0.068-0.036
			c-0.032-0.009-0.059-0.027-0.076-0.057l-0.003-0.001c-0.033-0.027-0.063-0.057-0.104-0.074c-0.032,0.006-0.055-0.006-0.068-0.036
			c-0.033-0.008-0.059-0.027-0.076-0.056l-0.004-0.002c-0.036-0.031-0.071-0.065-0.124-0.067c-0.026,0.008-0.042-0.002-0.046-0.028
			c-0.032-0.021-0.064-0.042-0.095-0.063c-0.03,0.009-0.055,0.001-0.073-0.025c-0.05,0.011-0.077-0.017-0.095-0.059
			c-0.03,0.01-0.055,0.001-0.073-0.024c-0.033-0.018-0.064-0.037-0.095-0.06c-0.03,0.01-0.055,0.001-0.072-0.024
			c-0.033-0.018-0.064-0.037-0.095-0.06c-0.03,0.01-0.055,0.002-0.073-0.024c-0.033-0.018-0.064-0.037-0.095-0.059
			c-0.03,0.009-0.055,0.001-0.072-0.025c-0.051,0.011-0.077-0.017-0.096-0.059c-0.027,0.01-0.051,0.005-0.071-0.017
			c-0.037-0.025-0.071-0.058-0.121-0.059c-0.044-0.012-0.088-0.023-0.131-0.035c-0.051,0.012-0.077-0.016-0.095-0.058
			c-0.027,0.011-0.052,0.005-0.072-0.016c-0.073,0.014-0.133-0.007-0.176-0.068c-0.025-0.009-0.051-0.017-0.076-0.024
			c-0.04-0.018-0.074-0.051-0.121-0.051c-0.043-0.009-0.087-0.018-0.13-0.025c-0.073,0.016-0.132-0.006-0.176-0.067
			c-0.028,0.011-0.054,0.006-0.075-0.016c-0.065-0.031-0.137-0.04-0.205-0.061c-0.044-0.011-0.088-0.021-0.132-0.033
			c-0.066,0.007-0.132,0.009-0.175-0.059c-0.053-0.008-0.106-0.017-0.16-0.025c-0.073,0.005-0.146,0.009-0.204-0.05
			c-0.001-0.001-0.001-0.001-0.002-0.001c-0.07-0.011-0.142-0.021-0.213-0.032c-0.073,0.005-0.147,0.008-0.205-0.051
			c-0.071-0.012-0.143-0.022-0.214-0.033c-0.089-0.007-0.188,0.029-0.258-0.059c-0.083,0.004-0.167,0.016-0.245-0.025
			c-0.114-0.017-0.242,0.044-0.342-0.059c-0.11,0-0.222,0.022-0.328-0.025c-0.142-0.023-0.297,0.053-0.426-0.058
			c-0.193-0.006-0.389,0.029-0.579-0.026c-0.337-0.035-0.682,0.067-1.013-0.058c-0.401,0.002-0.803,0.004-1.204,0.005
			c-0.372,0.114-0.755,0.016-1.131,0.062c-0.182,0.008-0.363,0.016-0.544,0.023c-0.146,0.093-0.307,0.033-0.46,0.052
			c-0.123,0.054-0.254,0.019-0.38,0.032c-0.087,0.075-0.191,0.047-0.29,0.052c-0.095,0.048-0.197,0.024-0.297,0.032
			c-0.087,0.067-0.19,0.058-0.291,0.061c-0.07,0.008-0.142,0.016-0.212,0.023c-0.059,0.06-0.132,0.056-0.206,0.051
			c-0.071,0.012-0.143,0.022-0.214,0.033c-0.058,0.06-0.131,0.056-0.205,0.051c-0.054,0.009-0.106,0.018-0.16,0.025
			c-0.071,0.081-0.168,0.066-0.26,0.067c-0.044,0.009-0.087,0.017-0.131,0.025c-0.046,0.001-0.079,0.034-0.12,0.05
			c-0.053,0.009-0.106,0.017-0.159,0.025c-0.044,0.062-0.104,0.083-0.177,0.067c-0.043,0.008-0.086,0.017-0.13,0.025
			c-0.047,0-0.08,0.034-0.12,0.05c-0.044,0.011-0.088,0.022-0.131,0.033c-0.047,0.001-0.08,0.034-0.12,0.051
			c-0.044,0.011-0.088,0.022-0.132,0.033c-0.047,0.001-0.08,0.034-0.12,0.051c-0.025,0.009-0.051,0.017-0.076,0.024
			c-0.043,0.062-0.104,0.082-0.176,0.068c-0.021,0.021-0.044,0.026-0.072,0.017c-0.018,0.042-0.044,0.069-0.095,0.058
			c-0.043,0.012-0.087,0.023-0.13,0.035c-0.051,0.001-0.087,0.033-0.123,0.063l-0.017,0.024l-0.029-0.005
			c-0.049,0.001-0.083,0.033-0.121,0.059c-0.021,0.021-0.044,0.027-0.072,0.017c-0.029,0.022-0.062,0.042-0.094,0.059
			c-0.019,0.026-0.043,0.035-0.073,0.025c-0.018,0.042-0.045,0.069-0.095,0.059c-0.019,0.026-0.042,0.035-0.072,0.025
			c-0.031,0.021-0.063,0.043-0.096,0.063c-0.004,0.026-0.02,0.036-0.046,0.028c-0.052,0.002-0.087,0.034-0.122,0.064l-0.017,0.024
			l-0.029-0.005c-0.053,0.002-0.088,0.036-0.124,0.067l-0.003,0.002c-0.019,0.028-0.044,0.047-0.076,0.056
			c-0.024,0.012-0.05,0.022-0.074,0.034c-0.031,0.022-0.062,0.043-0.095,0.063c-0.005,0.026-0.021,0.036-0.047,0.028
			c-0.053,0.004-0.088,0.036-0.119,0.074c-0.026,0.024-0.055,0.046-0.086,0.064c-0.004,0.027-0.02,0.037-0.046,0.029
			c-0.056,0.004-0.092,0.035-0.118,0.081l0.005-0.005c-0.037,0.018-0.062,0.052-0.095,0.075l-0.004,0.001
			c-0.018,0.029-0.043,0.048-0.075,0.057c-0.014,0.029-0.037,0.041-0.069,0.036c-0.041,0.019-0.075,0.047-0.097,0.087l0.005-0.005
			c-0.037,0.019-0.062,0.052-0.095,0.075l-0.004,0.002c-0.021,0.03-0.049,0.054-0.084,0.067l-0.013,0.013
			c-0.013,0.035-0.036,0.059-0.071,0.071l-0.012,0.013c-0.01,0.032-0.031,0.052-0.063,0.06c-0.014,0.029-0.037,0.042-0.069,0.036
			c-0.041,0.019-0.074,0.047-0.096,0.087c-0.035,0.021-0.064,0.048-0.084,0.084c-0.033,0.02-0.06,0.046-0.079,0.079
			c-0.002,0.001-0.003,0.004-0.005,0.005c-0.033,0.02-0.06,0.046-0.079,0.079c-0.037,0.02-0.065,0.049-0.087,0.085
			c0.002,0,0.002-0.001,0.003-0.002l-0.005,0.005c0.001-0.001,0.002-0.001,0.002-0.003c-0.036,0.021-0.065,0.05-0.085,0.087
			L92,109.869c-0.041,0.021-0.068,0.056-0.088,0.097c0.006,0.032-0.006,0.055-0.035,0.068c-0.008,0.033-0.028,0.054-0.061,0.063
			l-0.013,0.013c-0.013,0.034-0.036,0.06-0.07,0.076l-0.006,0.009c-0.021,0.033-0.045,0.063-0.07,0.093l0.001-0.003
			c-0.031,0.025-0.06,0.053-0.087,0.083h0.001c-0.013,0.017-0.025,0.034-0.039,0.051c-0.009-0.018-0.019-0.035-0.028-0.053
			l-0.029-0.013l-0.002-0.032c-0.002-0.051-0.033-0.086-0.064-0.121l-0.023-0.017l0.004-0.028c-0.001-0.052-0.033-0.087-0.064-0.123
			l-0.023-0.017l0.005-0.028c-0.003-0.053-0.036-0.088-0.074-0.119c-0.025-0.027-0.046-0.055-0.065-0.086
			c-0.026-0.005-0.036-0.02-0.028-0.046c-0.003-0.054-0.035-0.088-0.074-0.12c-0.025-0.028-0.049-0.059-0.069-0.091l-0.007-0.01
			c-0.03-0.013-0.051-0.034-0.059-0.067c-0.029-0.014-0.041-0.037-0.036-0.069c-0.019-0.041-0.047-0.074-0.087-0.096l0.005,0.005
			c-0.02-0.039-0.051-0.065-0.083-0.092l0.002,0.002c-0.026-0.028-0.05-0.06-0.07-0.092l-0.007-0.01
			c-0.033-0.016-0.057-0.041-0.07-0.075l-0.013-0.013c-0.035-0.013-0.059-0.037-0.071-0.071l-0.013-0.013
			c-0.034-0.013-0.059-0.036-0.071-0.071l-0.013-0.013c-0.034-0.014-0.06-0.036-0.075-0.07l-0.01-0.007
			c-0.032-0.021-0.063-0.044-0.092-0.07l0.003,0.002c-0.026-0.032-0.054-0.063-0.092-0.083l0.005,0.005
			c-0.022-0.04-0.056-0.067-0.097-0.087c-0.032,0.006-0.055-0.007-0.069-0.036c-0.032-0.008-0.055-0.027-0.067-0.059l-0.01-0.007
			c-0.032-0.021-0.062-0.044-0.091-0.069c-0.031-0.038-0.066-0.071-0.119-0.074c-0.026,0.008-0.042-0.002-0.046-0.029
			c-0.031-0.019-0.06-0.04-0.086-0.064c-0.031-0.038-0.067-0.071-0.12-0.074l-0.028,0.005l-0.017-0.023
			c-0.031-0.027-0.062-0.055-0.101-0.071c-0.029,0.007-0.052-0.002-0.068-0.026c-0.033-0.018-0.064-0.037-0.095-0.06
			c-0.03,0.01-0.055,0.001-0.072-0.024c-0.033-0.018-0.064-0.037-0.095-0.06c-0.03,0.01-0.055,0.002-0.073-0.024
			c-0.033-0.018-0.064-0.037-0.095-0.059c-0.03,0.009-0.055,0.001-0.072-0.025c-0.051,0.011-0.077-0.017-0.096-0.059
			c-0.03,0.01-0.054,0.001-0.072-0.025c-0.04-0.017-0.073-0.05-0.12-0.051l-0.029,0.006l-0.017-0.024
			c-0.071,0.005-0.134-0.011-0.177-0.074c-0.025-0.008-0.051-0.016-0.076-0.023c-0.04-0.018-0.073-0.051-0.12-0.052
			c-0.044-0.011-0.088-0.022-0.131-0.033c-0.041-0.017-0.074-0.051-0.122-0.05c-0.043-0.012-0.086-0.022-0.13-0.034
			c-0.04-0.016-0.073-0.05-0.121-0.05c-0.043-0.012-0.087-0.022-0.131-0.034c-0.066,0.006-0.132,0.008-0.175-0.059
			c-0.028,0.012-0.053,0.007-0.075-0.015c-0.065-0.031-0.137-0.042-0.206-0.062c-0.043-0.008-0.086-0.017-0.129-0.024
			c-0.092-0.001-0.188,0.014-0.26-0.066c-0.053-0.006-0.106-0.012-0.159-0.018c-0.092,0-0.188,0.014-0.259-0.066
			c-0.054-0.006-0.106-0.012-0.16-0.018c-0.101-0.002-0.204,0.008-0.291-0.06c-0.1-0.009-0.202,0.016-0.297-0.032
			c-0.098-0.005-0.202,0.023-0.289-0.052c-0.127-0.014-0.258,0.021-0.381-0.032c-0.142-0.023-0.297,0.053-0.426-0.058
			c-0.193-0.006-0.386-0.012-0.578-0.018c-0.364-0.05-0.738,0.059-1.098-0.066c-0.401,0.002-0.802,0.003-1.203,0.005
			c-0.344,0.108-0.698,0.025-1.046,0.053c-0.18,0.058-0.365,0.015-0.546,0.032c-0.146,0.093-0.307,0.033-0.46,0.052
			c-0.106,0.048-0.218,0.025-0.328,0.025c-0.1,0.103-0.228,0.042-0.342,0.059c-0.078,0.041-0.162,0.03-0.244,0.025
			c-0.071,0.088-0.17,0.052-0.259,0.059c-0.078,0.041-0.161,0.029-0.244,0.025c-0.071,0.081-0.168,0.066-0.26,0.066
			c-0.043,0.009-0.085,0.017-0.128,0.024c-0.058,0.06-0.132,0.056-0.206,0.051c-0.054,0.009-0.107,0.018-0.16,0.025
			c-0.043,0.066-0.108,0.064-0.175,0.059c-0.054,0.009-0.107,0.017-0.161,0.025c-0.042,0.066-0.107,0.064-0.174,0.059
			c-0.044,0.011-0.088,0.022-0.132,0.034c-0.047,0-0.08,0.034-0.12,0.05c-0.044,0.012-0.087,0.022-0.131,0.034
			c-0.047,0-0.08,0.033-0.12,0.05c-0.044,0.011-0.088,0.022-0.132,0.033c-0.047,0.001-0.079,0.034-0.12,0.05
			c-0.044,0.012-0.088,0.022-0.132,0.034c-0.047,0.001-0.079,0.034-0.119,0.051c-0.025,0.009-0.051,0.017-0.076,0.024
			c-0.043,0.063-0.105,0.079-0.177,0.074l-0.017,0.024l-0.029-0.005c-0.049,0.001-0.084,0.033-0.121,0.059
			c-0.021,0.021-0.044,0.026-0.072,0.017c-0.029,0.021-0.062,0.041-0.095,0.059c-0.019,0.026-0.043,0.034-0.073,0.024
			c-0.03,0.022-0.062,0.042-0.095,0.06c-0.018,0.026-0.042,0.034-0.073,0.024c-0.03,0.022-0.062,0.042-0.095,0.059
			c-0.018,0.026-0.042,0.035-0.072,0.025c-0.03,0.022-0.062,0.042-0.095,0.06c-0.018,0.025-0.042,0.034-0.073,0.024
			c-0.031,0.021-0.062,0.043-0.095,0.063c-0.004,0.026-0.02,0.036-0.046,0.029c-0.051,0.001-0.087,0.033-0.123,0.064l-0.016,0.023
			l-0.028-0.005c-0.054,0.003-0.089,0.035-0.12,0.074c-0.027,0.023-0.055,0.046-0.086,0.064c-0.004,0.027-0.019,0.036-0.045,0.028
			c-0.054,0.003-0.09,0.036-0.122,0.075l0.003-0.001c-0.026,0.024-0.056,0.046-0.086,0.064c-0.005,0.027-0.02,0.037-0.046,0.029
			c-0.055,0.004-0.092,0.036-0.119,0.082l0.005-0.006c-0.037,0.019-0.062,0.052-0.095,0.075l-0.003,0.002
			c-0.021,0.03-0.05,0.053-0.084,0.067l-0.013,0.013c-0.01,0.032-0.03,0.053-0.063,0.06c-0.014,0.029-0.037,0.042-0.069,0.036
			c-0.039,0.018-0.07,0.046-0.092,0.083c-0.036,0.02-0.063,0.048-0.083,0.083c-0.038,0.019-0.062,0.052-0.095,0.075l-0.003,0.002
			c-0.021,0.03-0.05,0.053-0.084,0.067l-0.013,0.013c-0.013,0.035-0.037,0.059-0.071,0.071l-0.013,0.013
			c-0.012,0.035-0.037,0.058-0.071,0.071l-0.013,0.013c-0.013,0.034-0.036,0.059-0.071,0.07l-0.013,0.013
			c-0.013,0.035-0.036,0.06-0.071,0.071l-0.013,0.013c-0.015,0.035-0.037,0.063-0.067,0.085l-0.001,0.003
			c-0.024,0.032-0.057,0.058-0.075,0.095c-0.033,0.02-0.06,0.046-0.079,0.079c-0.041,0.021-0.068,0.056-0.087,0.097
			c0.006,0.032-0.006,0.055-0.036,0.068c-0.008,0.032-0.027,0.055-0.06,0.063l-0.013,0.013c-0.014,0.035-0.037,0.062-0.067,0.084
			l-0.001,0.004c-0.027,0.032-0.057,0.062-0.074,0.103c-0.007,0.011-0.013,0.023-0.022,0.033c-0.006,0.007-0.024,0.014-0.024,0.014
			c-0.092-0.158-0.056-0.322-0.022-0.486c0.001-0.383,0-0.766,0.003-1.148c0.001-0.106-0.029-0.221,0.049-0.315v-0.001
			c0.001-0.374,0.004-0.749,0.002-1.124c-0.002-0.33-0.004-0.333-0.344-0.334c-1.388-0.003-2.776-0.003-4.165-0.004
			c-0.054,0.148-0.032,0.304-0.032,0.456c-0.001,7.235-0.001,14.471-0.001,21.706c0,0.084,0.008,0.169-0.001,0.251
			c-0.007,0.063,0.016,0.09,0.033,0.124c0.019,0.032,0.046,0.059,0.079,0.077c0.039,0.013,0.073,0.029,0.131,0.029
			c1.38-0.006,2.76-0.003,4.141-0.005c0.055,0,0.109-0.02,0.164-0.03c-0.001-4.259-0.006-8.518,0-12.775
			c0-0.611,0.045-1.223,0.166-1.825c0.396-1.991,1.444-3.494,3.287-4.415c1.331-0.666,2.756-0.949,4.22-1.051
			c1.126-0.077,2.256-0.084,3.382,0.045c0.916,0.105,1.815,0.288,2.651,0.688c1.055,0.504,1.806,1.279,2.106,2.444
			c0.141,0.546,0.108,1.105,0.16,1.657c0.074,0.778,0.037,1.562,0.037,2.343c0.001,4.16,0,8.321,0.002,12.482
			c0,0.479-0.072,0.438,0.451,0.438c1.257,0.001,2.514,0,3.771,0.001c0.326,0,0.323,0.021,0.319-0.317c-0.001-0.084,0-0.168,0-0.252
			c0-2.317-0.012-4.636,0.004-6.953c0.015-2.19-0.064-4.381,0.047-6.57c0.042-0.81,0.178-1.6,0.413-2.376
			c0.461-1.516,1.445-2.502,2.95-2.992c1.227-0.398,2.492-0.573,3.771-0.638c1.363-0.069,2.729-0.086,4.094,0.042
			c0.751,0.07,1.487,0.201,2.207,0.427c1.054,0.329,1.78,1.006,2.15,2.052c0.214,0.607,0.343,1.236,0.344,1.879
			c0.006,5.222,0.001,10.444,0,15.666c1.534,0.053,3.068,0.053,4.603,0c-0.001-0.167-0.003-0.334-0.004-0.502
			c-0.001-4.953-0.002-9.907-0.003-14.86C112.993,114.007,113.062,113.817,113.039,113.637z"/>
		<path d="M60.403,122.942c0.02-0.204-0.062-0.265-0.26-0.258c-0.375,0.013-0.75,0.004-1.124,0.004c-1.014,0-2.027,0.004-3.04-0.004
			c-0.198-0.002-0.269,0.055-0.262,0.258c0.01,0.332-0.009,0.665-0.016,0.997c-0.025,0.114,0.033,0.244-0.067,0.344
			c-0.005,0.053-0.011,0.106-0.017,0.159c-0.028,0.066-0.04,0.138-0.059,0.207c-0.011,0.043-0.022,0.086-0.033,0.129
			c-0.016,0.04-0.049,0.073-0.05,0.12c-0.011,0.043-0.022,0.087-0.034,0.131c0.011,0.051-0.016,0.077-0.058,0.095
			c0.009,0.031,0.001,0.055-0.025,0.073c-0.017,0.033-0.037,0.064-0.059,0.095c0.01,0.03,0.001,0.055-0.025,0.072
			c-0.016,0.032-0.036,0.061-0.061,0.087l0.001-0.003c-0.039,0.031-0.072,0.067-0.075,0.121c0.003,0.03-0.01,0.046-0.04,0.048
			c-0.011,0.032-0.031,0.058-0.059,0.076l-0.001,0.003c-0.023,0.031-0.054,0.056-0.072,0.092l-0.003,0.004
			c-0.036,0.021-0.064,0.048-0.084,0.083l0.004-0.004c-0.037,0.02-0.065,0.049-0.086,0.086c0.001-0.001,0.001-0.002,0.002-0.002
			l-0.004,0.004c0-0.001,0.001-0.001,0.002-0.002c-0.036,0.018-0.061,0.05-0.092,0.072l-0.003,0.002
			c-0.019,0.028-0.044,0.048-0.076,0.059c-0.002,0.03-0.018,0.043-0.048,0.04c-0.054,0.003-0.089,0.035-0.12,0.074
			c0,0,0.001-0.001,0.002-0.001c-0.012,0.044-0.037,0.071-0.087,0.061c-0.018,0.026-0.042,0.035-0.073,0.025
			c-0.03,0.021-0.062,0.041-0.095,0.059c-0.025,0.008-0.051,0.016-0.076,0.024c-0.043,0.062-0.105,0.079-0.177,0.073l-0.017,0.024
			l-0.028-0.006c-0.047,0-0.081,0.034-0.121,0.05c-0.043,0.011-0.086,0.021-0.129,0.033c-0.069,0.019-0.141,0.031-0.207,0.059
			c-0.043,0.009-0.086,0.017-0.13,0.025c-0.058,0.059-0.131,0.055-0.204,0.051c-0.071,0.011-0.143,0.021-0.214,0.032
			c-0.058,0.06-0.131,0.057-0.205,0.052c-0.078,0.041-0.162,0.029-0.244,0.024c-0.1,0.103-0.228,0.042-0.342,0.059
			c-0.106,0.048-0.218,0.025-0.328,0.025c-0.129,0.111-0.285,0.035-0.426,0.059c-0.163,0.055-0.33,0.021-0.496,0.025
			c-0.217,0.115-0.452,0.027-0.677,0.059c-0.32,0.062-0.643,0.01-0.964,0.03c-0.069,0.062-0.154,0.051-0.236,0.051
			c-1.105,0.001-2.211,0.001-3.316,0c-0.067,0-0.139,0.011-0.187-0.056c-0.249-0.008-0.5,0.03-0.747-0.026
			c-0.181-0.021-0.37,0.047-0.543-0.052c-0.125-0.008-0.251-0.016-0.377-0.022c-0.125-0.021-0.26,0.023-0.375-0.061
			c-0.099-0.008-0.202,0.016-0.297-0.032c-0.099-0.005-0.204,0.023-0.29-0.051c-0.071-0.011-0.142-0.021-0.212-0.032
			c-0.089-0.007-0.188,0.029-0.259-0.059c-0.053-0.009-0.106-0.018-0.16-0.025c-0.073,0.004-0.146,0.009-0.204-0.051
			c0,0,0,0-0.001,0c-0.043-0.009-0.086-0.017-0.129-0.025c-0.073,0.017-0.132-0.005-0.176-0.066
			c-0.053-0.009-0.106-0.017-0.16-0.025c-0.041-0.016-0.074-0.05-0.121-0.05c-0.043-0.011-0.087-0.022-0.13-0.034
			c-0.041-0.016-0.073-0.049-0.12-0.05c-0.044-0.011-0.088-0.022-0.132-0.034c-0.05,0.012-0.077-0.016-0.095-0.057
			c-0.027,0.01-0.051,0.005-0.072-0.017c-0.038-0.025-0.072-0.058-0.121-0.059l-0.029,0.005l-0.017-0.024
			c-0.036-0.031-0.071-0.062-0.122-0.064l-0.029,0.005l-0.017-0.024c-0.036-0.031-0.071-0.062-0.123-0.064l-0.028,0.005
			l-0.017-0.024c-0.031-0.026-0.062-0.054-0.101-0.07c-0.029,0.007-0.052-0.003-0.068-0.027c-0.032-0.016-0.061-0.036-0.086-0.061
			c0,0.001,0.001,0.001,0.002,0.002l-0.002-0.002h0c-0.026-0.034-0.058-0.062-0.097-0.08c-0.032,0.006-0.055-0.006-0.069-0.036
			c-0.033-0.007-0.054-0.027-0.063-0.06l-0.013-0.013c-0.035-0.013-0.058-0.036-0.071-0.07l-0.013-0.013
			c-0.035-0.013-0.059-0.037-0.071-0.071l-0.013-0.013c-0.032-0.01-0.053-0.031-0.062-0.063c-0.029-0.002-0.042-0.017-0.039-0.046
			c-0.003-0.057-0.036-0.093-0.082-0.12l0.005,0.006c-0.018-0.037-0.051-0.062-0.075-0.095l-0.001-0.004
			c-0.029-0.018-0.047-0.043-0.056-0.076c-0.012-0.022-0.024-0.046-0.037-0.069c-0.017-0.038-0.044-0.069-0.071-0.101l-0.024-0.017
			l0.004-0.028c-0.001-0.052-0.034-0.087-0.064-0.122l-0.024-0.018l0.005-0.028c-0.002-0.051-0.034-0.086-0.065-0.122l-0.024-0.017
			l0.005-0.028c-0.001-0.05-0.033-0.085-0.059-0.122c-0.021-0.021-0.027-0.045-0.017-0.072c-0.042-0.018-0.069-0.044-0.058-0.095
			c-0.011-0.044-0.022-0.088-0.034-0.131c-0.001-0.047-0.035-0.08-0.05-0.12c-0.011-0.044-0.022-0.087-0.034-0.131
			c0-0.047-0.034-0.08-0.05-0.12c-0.011-0.044-0.022-0.087-0.033-0.13c-0.02-0.069-0.031-0.141-0.06-0.206
			c-0.008-0.043-0.016-0.086-0.024-0.129c-0.02-0.068-0.031-0.14-0.06-0.207c-0.006-0.053-0.011-0.105-0.017-0.158
			c-0.081-0.072-0.066-0.168-0.067-0.26c-0.008-0.071-0.016-0.142-0.024-0.212c-0.075-0.087-0.047-0.191-0.051-0.29
			c-0.048-0.095-0.024-0.196-0.032-0.295c-0.086-0.116-0.04-0.249-0.052-0.375c-0.057-0.151-0.016-0.309-0.031-0.463
			c-0.105-0.229-0.021-0.476-0.061-0.711c-0.007-0.32-0.017-0.641-0.019-0.961c-0.003-0.471,0-0.472,0.452-0.472
			c7.034,0,14.067,0,21.1,0c0.098,0,0.197-0.011,0.293,0.002c0.232,0.031,0.277-0.081,0.275-0.288
			c-0.01-0.865-0.006-1.73-0.007-2.596c-0.106-0.259-0.024-0.53-0.053-0.795c-0.054-0.163-0.021-0.33-0.025-0.495
			c-0.11-0.13-0.035-0.285-0.059-0.427c-0.047-0.106-0.025-0.218-0.025-0.328c-0.1-0.1-0.042-0.229-0.066-0.343
			c-0.006-0.081-0.012-0.162-0.018-0.243c-0.08-0.071-0.066-0.168-0.066-0.26c-0.005-0.054-0.011-0.106-0.017-0.159
			c-0.081-0.071-0.066-0.168-0.067-0.26c-0.005-0.053-0.011-0.106-0.017-0.159c-0.066-0.043-0.064-0.108-0.058-0.175
			c-0.008-0.054-0.017-0.107-0.025-0.16c-0.062-0.044-0.083-0.103-0.066-0.176c-0.009-0.044-0.018-0.088-0.026-0.131
			c-0.001-0.047-0.034-0.08-0.05-0.12c-0.011-0.043-0.022-0.086-0.033-0.129c-0.055-0.059-0.069-0.131-0.067-0.208l-0.024-0.016
			l0.005-0.028c0-0.048-0.034-0.081-0.05-0.122c-0.012-0.043-0.023-0.087-0.035-0.13c0-0.05-0.033-0.085-0.059-0.122
			c-0.021-0.021-0.026-0.045-0.016-0.072c-0.042-0.018-0.069-0.044-0.058-0.095c-0.012-0.043-0.023-0.086-0.035-0.13
			c-0.001-0.051-0.034-0.087-0.064-0.122l-0.024-0.018l0.005-0.028c-0.002-0.051-0.034-0.087-0.065-0.122l-0.024-0.017l0.005-0.028
			c-0.002-0.053-0.036-0.088-0.067-0.125l-0.001-0.003c-0.029-0.018-0.047-0.044-0.056-0.076c-0.012-0.024-0.023-0.049-0.035-0.074
			c-0.022-0.03-0.042-0.062-0.059-0.095c-0.025-0.016-0.034-0.039-0.027-0.067c-0.017-0.04-0.047-0.07-0.074-0.104l-0.001-0.003
			c-0.028-0.019-0.047-0.043-0.056-0.076c-0.03-0.014-0.042-0.036-0.036-0.068c-0.018-0.041-0.047-0.073-0.081-0.101l0.001,0.003
			c-0.026-0.028-0.049-0.06-0.07-0.092l-0.006-0.01c-0.031-0.013-0.051-0.035-0.059-0.067c-0.03-0.014-0.042-0.036-0.036-0.068
			c-0.019-0.042-0.046-0.075-0.087-0.098c-0.021-0.034-0.048-0.063-0.083-0.083l0.004,0.004c-0.019-0.037-0.05-0.064-0.083-0.091
			l0.001,0.003c-0.023-0.032-0.055-0.058-0.075-0.092l-0.004-0.004c-0.034-0.02-0.059-0.052-0.091-0.075l0.002,0.002
			c-0.026-0.031-0.054-0.063-0.091-0.082l0.004,0.004c-0.021-0.037-0.051-0.066-0.088-0.088c-0.02-0.033-0.046-0.061-0.08-0.08
			c-0.027-0.044-0.062-0.076-0.117-0.08c-0.029,0.003-0.045-0.01-0.047-0.039c-0.032-0.011-0.058-0.031-0.076-0.06l-0.003-0.001
			c-0.032-0.027-0.063-0.057-0.103-0.074c-0.032,0.006-0.055-0.007-0.069-0.036c-0.032-0.009-0.058-0.027-0.076-0.056l-0.003-0.002
			c-0.037-0.031-0.072-0.065-0.124-0.067c-0.026,0.008-0.042-0.002-0.047-0.029c-0.032-0.02-0.063-0.041-0.095-0.062
			c-0.03,0.009-0.055,0.001-0.073-0.025c-0.033-0.017-0.065-0.036-0.095-0.059c-0.03,0.009-0.055,0.001-0.073-0.025
			c-0.05,0.011-0.077-0.017-0.095-0.059c-0.03,0.01-0.054,0.001-0.072-0.024c-0.033-0.018-0.065-0.037-0.095-0.06
			c-0.028,0.011-0.052,0.005-0.072-0.017c-0.038-0.025-0.072-0.058-0.122-0.058c-0.043-0.012-0.087-0.023-0.13-0.035
			c-0.034-0.017-0.065-0.036-0.095-0.058c-0.028,0.01-0.052,0.005-0.072-0.017c-0.073,0.014-0.133-0.006-0.176-0.068
			c-0.025-0.008-0.051-0.016-0.076-0.024c-0.04-0.017-0.073-0.05-0.121-0.051c-0.043-0.009-0.087-0.018-0.13-0.025
			c-0.073,0.016-0.132-0.005-0.176-0.067c-0.028,0.012-0.054,0.007-0.075-0.015c-0.066-0.031-0.138-0.042-0.208-0.062
			c-0.043-0.011-0.086-0.021-0.129-0.033c-0.067,0.006-0.132,0.009-0.175-0.058c-0.053-0.009-0.106-0.017-0.16-0.025
			c-0.074,0.005-0.147,0.008-0.205-0.051c-0.043-0.009-0.086-0.017-0.129-0.024c-0.092-0.001-0.188,0.014-0.26-0.067
			c-0.053-0.006-0.106-0.011-0.159-0.017c-0.092-0.001-0.188,0.015-0.26-0.067c-0.083,0.005-0.166,0.016-0.244-0.025
			c-0.089-0.006-0.188,0.03-0.259-0.058c-0.081-0.006-0.162-0.012-0.243-0.018c-0.114-0.024-0.244,0.034-0.344-0.066
			c-0.027,0.011-0.051,0.007-0.074-0.012c-0.057-0.002-0.113-0.004-0.17-0.006c-0.141-0.028-0.297,0.039-0.427-0.066
			c-0.109-0.006-0.218-0.012-0.327-0.017c-0.168-0.036-0.352,0.044-0.51-0.067c-0.166-0.005-0.333,0.029-0.497-0.025
			c-0.224-0.031-0.459,0.059-0.676-0.058c-0.108-0.005-0.217-0.009-0.325-0.014c-0.169,0.021-0.338,0.036-0.505-0.013
			c-0.443,0-0.886,0.002-1.329-0.003c-0.091-0.001-0.196,0.038-0.27-0.055c-0.552,0-1.104,0-1.656,0
			c-0.178,0.115-0.375,0.043-0.562,0.053c-0.29,0.017-0.582,0.011-0.872,0.014c-0.237,0.008-0.474,0.016-0.711,0.022
			c-0.173,0.101-0.362,0.031-0.543,0.053c-0.151,0.057-0.309,0.016-0.462,0.031c-0.115,0.087-0.25,0.04-0.375,0.053
			c-0.123,0.053-0.254,0.019-0.38,0.032c0,0,0,0-0.001,0c-0.086,0.074-0.19,0.047-0.289,0.052c-0.082,0.044-0.168,0.026-0.254,0.02
			l-0.018,0.022l-0.027-0.009c-0.086,0.073-0.19,0.046-0.288,0.051c0.021-0.027,0.047-0.043,0.075-0.054
			c-0.024-0.007-0.049-0.015-0.074-0.018c-0.079-0.004-0.156,0.006-0.231,0.025c-0.089,0.027-0.18,0.048-0.272,0.058
			c-0.054,0.007-0.108,0.017-0.161,0.032c-0.083,0.028-0.169,0.047-0.257,0.055c-0.052,0.006-0.104,0.015-0.154,0.03
			c-0.064,0.021-0.129,0.04-0.196,0.054c-0.049,0.009-0.099,0.019-0.146,0.034c-0.062,0.021-0.125,0.039-0.189,0.052
			c-0.048,0.008-0.096,0.018-0.142,0.033c-0.06,0.021-0.12,0.043-0.181,0.061c-0.03,0.008-0.06,0.018-0.089,0.029
			c-0.058,0.022-0.117,0.039-0.178,0.049c-0.046,0.007-0.091,0.016-0.135,0.03c-0.043,0.016-0.086,0.031-0.129,0.047
			c-0.043,0.012-0.086,0.024-0.129,0.04c-0.041,0.016-0.082,0.032-0.123,0.047c-0.042,0.012-0.084,0.022-0.125,0.038
			c-0.039,0.017-0.078,0.035-0.115,0.055c-0.026,0.011-0.051,0.022-0.076,0.036c-0.037,0.019-0.074,0.034-0.113,0.046
			c-0.04,0.01-0.08,0.02-0.118,0.034c-0.038,0.016-0.075,0.035-0.111,0.054c-0.025,0.011-0.05,0.022-0.074,0.036
			c-0.036,0.021-0.073,0.039-0.11,0.057c-0.025,0.011-0.051,0.021-0.076,0.035c-0.025,0.013-0.051,0.024-0.075,0.038
			c-0.026,0.012-0.051,0.024-0.076,0.038c-0.037,0.021-0.074,0.039-0.112,0.058c-0.025,0.011-0.05,0.022-0.074,0.039
			c-0.023,0.014-0.045,0.03-0.065,0.049c0,0.001-0.032,0.024-0.032,0.025c-0.022,0.016-0.045,0.029-0.067,0.044
			c-0.024,0.012-0.049,0.023-0.072,0.037c-0.036,0.02-0.073,0.038-0.109,0.057c-0.026,0.011-0.051,0.022-0.074,0.039
			c-0.023,0.015-0.046,0.031-0.067,0.05c0,0.001-0.034,0.024-0.033,0.025c-0.023,0.016-0.047,0.03-0.071,0.045
			c-0.025,0.013-0.05,0.026-0.074,0.042c-0.023,0.016-0.046,0.033-0.067,0.053c-0.01,0.011-0.021,0.02-0.03,0.03
			c-0.021,0.02-0.041,0.04-0.06,0.062c-0.009,0.01-0.02,0.02-0.029,0.03c-0.02,0.019-0.04,0.038-0.059,0.059
			c0,0.001-0.03,0.028-0.03,0.029c-0.02,0.019-0.041,0.037-0.061,0.056c0.001,0.001-0.033,0.024-0.032,0.025
			c-0.023,0.014-0.047,0.027-0.071,0.041c-0.025,0.012-0.05,0.025-0.073,0.04c-0.023,0.017-0.046,0.034-0.067,0.054
			c-0.01,0.011-0.021,0.021-0.031,0.03c-0.021,0.02-0.042,0.04-0.061,0.062c-0.009,0.011-0.02,0.021-0.029,0.031
			c-0.02,0.021-0.039,0.043-0.055,0.066c-0.016,0.023-0.031,0.048-0.043,0.073c-0.014,0.024-0.028,0.048-0.042,0.072
			c0.001,0.001-0.025,0.032-0.024,0.033c-0.019,0.021-0.038,0.04-0.055,0.061c0,0.001-0.03,0.028-0.029,0.029
			c-0.021,0.019-0.041,0.038-0.059,0.059c-0.01,0.01-0.021,0.019-0.03,0.029c-0.021,0.019-0.041,0.038-0.061,0.06
			c-0.009,0.01-0.02,0.02-0.03,0.03c-0.02,0.021-0.038,0.042-0.054,0.066c-0.016,0.023-0.031,0.047-0.044,0.073
			c-0.014,0.024-0.03,0.048-0.044,0.071c-0.008,0.012-0.017,0.022-0.025,0.034c-0.018,0.021-0.035,0.043-0.051,0.066
			s-0.031,0.048-0.043,0.073c-0.014,0.024-0.029,0.048-0.042,0.072c-0.008,0.011-0.017,0.022-0.024,0.033
			c-0.018,0.022-0.035,0.044-0.051,0.067s-0.03,0.049-0.042,0.074c-0.019,0.039-0.039,0.077-0.059,0.114
			c-0.014,0.025-0.028,0.052-0.04,0.078c-0.014,0.026-0.027,0.053-0.04,0.079c-0.014,0.026-0.028,0.054-0.041,0.081
			c-0.014,0.027-0.028,0.054-0.041,0.082c-0.014,0.026-0.028,0.054-0.041,0.082c-0.013,0.026-0.027,0.053-0.039,0.08
			c-0.014,0.026-0.027,0.052-0.038,0.08c-0.018,0.038-0.038,0.076-0.059,0.113c-0.014,0.024-0.027,0.05-0.038,0.075
			c-0.019,0.039-0.04,0.076-0.057,0.115c-0.011,0.026-0.021,0.054-0.029,0.082c-0.013,0.041-0.027,0.083-0.043,0.123
			c-0.012,0.027-0.024,0.054-0.035,0.082c-0.019,0.04-0.039,0.08-0.056,0.122c-0.017,0.041-0.03,0.084-0.042,0.128
			c-0.014,0.043-0.031,0.085-0.047,0.127c-0.016,0.043-0.03,0.087-0.042,0.131c-0.015,0.044-0.032,0.088-0.046,0.132
			c-0.015,0.046-0.026,0.092-0.033,0.14c-0.011,0.063-0.031,0.125-0.051,0.186c-0.015,0.047-0.026,0.095-0.034,0.144
			c-0.011,0.065-0.031,0.129-0.051,0.191c-0.016,0.049-0.027,0.098-0.035,0.148c-0.013,0.067-0.034,0.134-0.054,0.199
			c-0.015,0.051-0.026,0.104-0.031,0.157c-0.008,0.09-0.031,0.178-0.057,0.265c-0.02,0.072-0.029,0.146-0.034,0.222
			c-0.004,0.096-0.025,0.188-0.052,0.279c-0.02,0.076-0.03,0.154-0.024,0.234c0.001,0.025,0.008,0.052,0.015,0.077
			c0.011-0.03,0.026-0.058,0.055-0.079c-0.017,0.114,0.043,0.241-0.058,0.342c0,0.109,0.022,0.221-0.025,0.327
			c-0.024,0.142,0.051,0.296-0.059,0.426c-0.005,0.165-0.011,0.33-0.017,0.495c-0.043,0.28,0.05,0.571-0.066,0.846
			c-0.004,0.137-0.009,0.272-0.013,0.409c0.006,0.712,0.012,1.424,0.019,2.135c0.106,0.287,0.019,0.588,0.062,0.88
			c0.005,0.165,0.011,0.33,0.017,0.495c0.11,0.159,0.03,0.343,0.067,0.512c0.005,0.108,0.011,0.217,0.017,0.325
			c0.102,0.101,0.041,0.228,0.059,0.343c0.048,0.095,0.024,0.197,0.032,0.296c0.067,0.087,0.058,0.19,0.06,0.291
			c0.008,0.07,0.016,0.141,0.024,0.211c0.068,0.087,0.058,0.191,0.06,0.292c0.006,0.053,0.011,0.106,0.017,0.159
			c0.066,0.043,0.064,0.108,0.058,0.175c0.013,0.079,0.026,0.159,0.039,0.238c0.053,0.051,0.068,0.111,0.054,0.183
			c0.008,0.042,0.016,0.085,0.024,0.128c0.02,0.068,0.024,0.143,0.061,0.206c0.021,0.022,0.026,0.048,0.015,0.076
			c0.066,0.042,0.064,0.107,0.059,0.175c0.011,0.043,0.022,0.087,0.033,0.13c-0.001,0.048,0.033,0.081,0.051,0.121
			c0.011,0.043,0.022,0.086,0.033,0.129c-0.002,0.049,0.033,0.082,0.051,0.123c0.011,0.043,0.022,0.086,0.034,0.129
			c-0.001,0.052,0.033,0.086,0.06,0.123c0.021,0.021,0.027,0.044,0.017,0.071c0.042,0.019,0.069,0.045,0.058,0.096
			c0.011,0.043,0.022,0.086,0.034,0.129c0,0.053,0.033,0.088,0.066,0.123l0.023,0.017l-0.006,0.027
			c-0.001,0.049,0.033,0.083,0.052,0.123c0.026,0.018,0.035,0.042,0.025,0.072c0.021,0.03,0.041,0.062,0.059,0.095
			c0.026,0.019,0.034,0.042,0.025,0.072c0.021,0.032,0.042,0.064,0.063,0.096l0.027,0.014l0.001,0.031
			c0,0.053,0.033,0.088,0.065,0.124l0.023,0.016l-0.005,0.027c0.001,0.056,0.035,0.092,0.076,0.123l-0.001-0.003
			c0.023,0.027,0.043,0.056,0.061,0.087c0.025,0.016,0.034,0.038,0.027,0.067c0.016,0.04,0.045,0.071,0.074,0.104l0.001,0.003
			c0.027,0.02,0.047,0.045,0.059,0.076c0.029,0.001,0.042,0.016,0.039,0.045c0.002,0.058,0.034,0.095,0.083,0.121l-0.005-0.005
			c0.017,0.038,0.05,0.063,0.076,0.095l0.001,0.003c0.029,0.022,0.052,0.051,0.067,0.084l0.014,0.014
			c0.031,0.011,0.051,0.032,0.062,0.062c0.029,0.002,0.042,0.017,0.038,0.045c0.002,0.057,0.035,0.094,0.082,0.119
			c0.019,0.035,0.045,0.062,0.08,0.08c0.02,0.039,0.049,0.069,0.088,0.089c0.019,0.033,0.044,0.06,0.078,0.078
			c0.026,0.048,0.063,0.08,0.121,0.082c0.029-0.004,0.044,0.01,0.046,0.039c0.031,0.011,0.052,0.031,0.063,0.062l0.013,0.013
			c0.033,0.016,0.062,0.038,0.083,0.067l0.003,0.002c0.031,0.025,0.056,0.059,0.095,0.075l-0.006-0.006
			c0.026,0.048,0.062,0.08,0.12,0.082c0.026-0.008,0.041,0.002,0.045,0.028c0.03,0.021,0.059,0.042,0.087,0.065l-0.003-0.002
			c0.03,0.041,0.066,0.074,0.121,0.075l0.029-0.004l0.017,0.023c0.03,0.028,0.061,0.056,0.101,0.071
			c0.029-0.007,0.052,0.002,0.069,0.026c0.032,0.019,0.063,0.038,0.094,0.059c0.031-0.009,0.055-0.001,0.073,0.025
			c0.032,0.019,0.063,0.038,0.094,0.059c0.03-0.009,0.055-0.001,0.073,0.025c0.032,0.019,0.063,0.038,0.094,0.059
			c0.031-0.01,0.055-0.001,0.073,0.025c0.032,0.019,0.063,0.038,0.094,0.059c0.031-0.01,0.055-0.001,0.074,0.025
			c0.039,0.019,0.072,0.052,0.12,0.051l0.029-0.006l0.017,0.023c0.035,0.033,0.07,0.065,0.122,0.065
			c0.044,0.011,0.087,0.022,0.131,0.034c0.04,0.019,0.072,0.052,0.12,0.05l0.029-0.005l0.018,0.023
			c0.071-0.005,0.133,0.011,0.176,0.074c0.028-0.011,0.054-0.006,0.076,0.016c0.073-0.014,0.132,0.005,0.175,0.068
			c0.054,0.008,0.107,0.017,0.161,0.025c0.04,0.018,0.073,0.052,0.121,0.05c0.043,0.008,0.086,0.017,0.129,0.025
			c0.073-0.016,0.132,0.005,0.175,0.066c0.054,0.009,0.108,0.018,0.162,0.026c0.066-0.007,0.131-0.008,0.173,0.058
			c0.054,0.009,0.108,0.018,0.162,0.025c0.073-0.005,0.146-0.008,0.204,0.051c0.043,0.009,0.086,0.017,0.13,0.024
			c0.092,0.001,0.188-0.014,0.259,0.066l0.039-0.005l0.035,0.017c0.028,0.002,0.057,0.004,0.085,0.006
			c0.1,0.002,0.204-0.008,0.291,0.06c0.071,0.009,0.141,0.017,0.212,0.024c0.101,0.002,0.203-0.008,0.29,0.06
			c0.1,0.009,0.203-0.016,0.298,0.032c0.099,0.006,0.203-0.022,0.29,0.052c0,0,0,0,0.001,0c0.098,0.008,0.196,0.016,0.294,0.023
			c0.142,0.029,0.298-0.039,0.427,0.067c0.138,0.002,0.277-0.026,0.412,0.025c0.169,0.023,0.35-0.052,0.509,0.059
			c0.188,0.005,0.375,0.011,0.563,0.017c0.004,0,0.009,0,0.013,0l0.039-0.011l0.039,0.011c0.008,0,0.016,0,0.024,0
			c0.243-0.003,0.486-0.006,0.729-0.01c0,0,0.001,0,0.002,0c1.651,0,3.302,0,4.953,0c0.001,0,0.001,0,0.002,0
			c0.278,0.002,0.556,0.003,0.834,0.004c0.219-0.004,0.438-0.008,0.656-0.011c0.187-0.123,0.399-0.022,0.595-0.067
			c0.126-0.008,0.251-0.016,0.377-0.022c0.145-0.089,0.307-0.037,0.46-0.062c0.109-0.006,0.218-0.011,0.327-0.017
			c0.099-0.1,0.229-0.042,0.343-0.066c0.099-0.009,0.198-0.017,0.296-0.024c0.087-0.067,0.19-0.058,0.29-0.06
			c0.071-0.008,0.142-0.016,0.212-0.024c0.087-0.067,0.19-0.058,0.291-0.06c0.053-0.006,0.106-0.012,0.159-0.018
			c0.072-0.081,0.168-0.065,0.26-0.066c0.053-0.006,0.106-0.011,0.159-0.017c0.071-0.081,0.167-0.066,0.26-0.067
			c0.043-0.008,0.086-0.016,0.129-0.023c0.068-0.021,0.139-0.031,0.206-0.06c0.043-0.009,0.087-0.018,0.131-0.025
			c0.046-0.001,0.079-0.035,0.12-0.051c0.053-0.008,0.106-0.017,0.16-0.025c0.043-0.062,0.103-0.082,0.176-0.066
			c0.043-0.009,0.086-0.017,0.129-0.025c0.047,0,0.081-0.034,0.121-0.05c0.043-0.012,0.087-0.023,0.131-0.035
			c0.05-0.001,0.084-0.033,0.122-0.059l0.035-0.021l0.04,0.005c0.043-0.062,0.105-0.079,0.176-0.074l0.017-0.023l0.029,0.005
			c0.047,0,0.081-0.033,0.121-0.051l0.031-0.025h0.041c0.03-0.021,0.062-0.041,0.095-0.059l0.032-0.025l0.041,0.001
			c0.03-0.022,0.062-0.042,0.095-0.06l0.032-0.025l0.041,0.001c0.03-0.022,0.062-0.042,0.095-0.059l0.032-0.026l0.041,0.001
			c0.03-0.021,0.062-0.041,0.094-0.059c0.017-0.024,0.04-0.034,0.068-0.027c0.039-0.017,0.069-0.044,0.101-0.071l0.016-0.023
			l0.028,0.005c0.053-0.003,0.088-0.035,0.12-0.074c0.028-0.025,0.059-0.049,0.091-0.069l0.009-0.007
			c0.012-0.031,0.036-0.051,0.068-0.059c0.014-0.029,0.037-0.042,0.068-0.036c0.041-0.019,0.073-0.047,0.1-0.081l-0.003,0.002
			c0.029-0.026,0.06-0.05,0.092-0.07l0.01-0.007c0.016-0.034,0.041-0.058,0.076-0.07l0.013-0.013
			c0.01-0.032,0.031-0.054,0.063-0.062c0.002-0.029,0.018-0.043,0.047-0.039c0.055-0.004,0.091-0.036,0.118-0.081
			c0.037-0.022,0.065-0.053,0.083-0.092c-0.005-0.032,0.006-0.055,0.036-0.068c0.008-0.033,0.027-0.055,0.06-0.063l0.013-0.013
			c0.013-0.035,0.036-0.059,0.071-0.071l0.013-0.013c0.013-0.035,0.037-0.06,0.07-0.076l0.007-0.009
			c0.021-0.033,0.044-0.063,0.07-0.093l-0.002,0.003c0.035-0.027,0.063-0.059,0.082-0.1c-0.005-0.032,0.007-0.055,0.036-0.069
			c0.009-0.032,0.027-0.058,0.056-0.076l0.001-0.003c0.027-0.032,0.056-0.063,0.074-0.103c-0.005-0.032,0.007-0.056,0.036-0.069
			c0.009-0.032,0.027-0.058,0.056-0.076l0.001-0.003c0.031-0.037,0.065-0.072,0.067-0.124l-0.004-0.029l0.024-0.017
			c0.031-0.035,0.062-0.07,0.064-0.121l-0.004-0.029l0.024-0.017c0.031-0.036,0.063-0.071,0.064-0.123l-0.005-0.028l0.024-0.017
			c-0.005-0.071,0.01-0.134,0.074-0.177c-0.011-0.028-0.006-0.054,0.015-0.075c-0.013-0.072,0.007-0.132,0.069-0.176
			c-0.012-0.028-0.006-0.054,0.015-0.075c-0.013-0.073,0.006-0.133,0.068-0.176c0.009-0.054,0.017-0.107,0.026-0.161
			c-0.004-0.073-0.009-0.147,0.051-0.206c0.011-0.07,0.021-0.142,0.033-0.213c0.005-0.099-0.022-0.203,0.051-0.289
			c0,0.001,0,0.001,0,0.002c0-0.001,0-0.001,0-0.002c0.008-0.154,0.016-0.309,0.024-0.463c0.002-0.25,0.005-0.5,0.008-0.75
			C60.379,123.165,60.392,123.051,60.403,122.942z M40.845,107.025c-0.087,0.068-0.192,0.058-0.293,0.061
			C40.634,106.992,40.742,107.021,40.845,107.025z M40.393,107.104c-0.072,0.08-0.168,0.065-0.26,0.066
			C40.203,107.082,40.3,107.101,40.393,107.104z M40.004,107.194c-0.058,0.059-0.131,0.055-0.206,0.051
			C39.856,107.181,39.93,107.186,40.004,107.194z M39.639,107.271c-0.042,0.066-0.108,0.064-0.175,0.059
			C39.51,107.272,39.573,107.267,39.639,107.271z M39.335,107.361c-0.06,0.054-0.129,0.072-0.208,0.062
			C39.182,107.352,39.257,107.354,39.335,107.361z M39.052,107.438c-0.042,0.066-0.107,0.065-0.174,0.059
			C38.923,107.44,38.986,107.435,39.052,107.438z M38.318,115.848c0.052-1.012,0.113-2.024,0.385-3.009
			c0.134-0.484,0.324-0.946,0.58-1.38c0.505-0.854,1.332-1.235,2.234-1.485c0.94-0.26,1.905-0.374,2.877-0.458
			c1.378-0.119,2.757-0.085,4.135-0.067c1.292,0.016,2.58,0.135,3.846,0.416c0.462,0.103,0.917,0.238,1.341,0.449
			c0.823,0.409,1.292,1.112,1.582,1.958c0.25,0.729,0.338,1.488,0.387,2.251c0.033,0.514,0.022,1.03,0.037,1.545
			c0.004,0.154-0.039,0.24-0.211,0.225c-0.097-0.01-0.195-0.002-0.293-0.002c-2.734,0-5.469,0-8.204,0c-2.748,0-5.497,0.001-8.245,0
			C38.291,116.289,38.292,116.358,38.318,115.848z M33.684,114.146c-0.001-0.091-0.021-0.186,0.059-0.258
			C33.737,113.978,33.771,114.076,33.684,114.146z M33.768,113.644c-0.002-0.093-0.021-0.189,0.066-0.259
			C33.834,113.477,33.848,113.572,33.768,113.644z M33.859,113.255c-0.009-0.074-0.013-0.147,0.051-0.204
			C33.915,113.125,33.917,113.197,33.859,113.255z M33.936,112.89c-0.003-0.065,0.002-0.128,0.058-0.174
			C34,112.782,34.002,112.848,33.936,112.89z M34.02,112.555c-0.003-0.068,0.005-0.132,0.067-0.176
			C34.103,112.452,34.082,112.512,34.02,112.555z M34.354,111.549c-0.003-0.07,0.008-0.135,0.074-0.176
			C34.434,111.444,34.417,111.507,34.354,111.549z M37.955,107.832c0.032-0.02,0.064-0.039,0.096-0.058
			C38.033,107.816,38.006,107.844,37.955,107.832z"/>
	</g>
</g>
</svg>
